<svg transform="scale(1)" version="1.1" id="Layer_1" xmlns="http://www.w3.org/2000/svg" xmlns:xlink="http://www.w3.org/1999/xlink" x="0px" y="0px" viewBox="0 0 500 500" xml:space="preserve" class="show_show__wrapper__graphic__5Waiy "><title>React</title><style type="text/css">
	.st0{fill:#cb3434;}
	.st1{opacity:0.32;fill:url(#SVGID_1_);enable-background:new    ;}
	.st2{fill:#68E1FD;}
	.st3{opacity:0.68;fill:#093E3E;enable-background:new    ;}
	.st4{opacity:0.29;fill:#093E3E;enable-background:new    ;}
	.st5{fill:#FFA87D;stroke:#F0F0F0;stroke-width:1.28;stroke-miterlimit:10;}
	.st6{fill:none;}
	.st7{fill:#FED337;}
	.st8{fill:#F4B322;}
	.st9{fill:#9E5454;}
	.st10{fill:#F6B0B0;}
	.st11{fill:#F0F0F0;}
	.st12{fill:#83CA50;}
	.st13{opacity:0.2;fill:#093E3E;enable-background:new    ;}
	.st14{opacity:0.5;fill:#093E3E;enable-background:new    ;}
	.st15{fill:#093E3E;}
	.st16{fill:#FFA87D;}
	.st17{opacity:0.4;fill:#F0F0F0;enable-background:new    ;}
</style><g id="background"><path class="st0" d="M244.1,389.9L23.7,259.6c-7-3.9-13-10.4-6.2-14.6l221.2-127.5c3.3-2,8.4-3.4,11.7-1.4l231.4,134.3
		c7,4.1,8.3,15.5,1.3,19.5L273.2,389.6C264.2,394.9,253.2,394.9,244.1,389.9z"></path><linearGradient id="SVGID_1_" gradientUnits="userSpaceOnUse" x1="178.1445" y1="231.3167" x2="150.3145" y2="193.7467" gradientTransform="matrix(1 0 0 -1 0 502)"><stop offset="0" style="stop-color: rgb(9, 62, 62);"></stop><stop offset="1" style="stop-color: rgb(9, 62, 62); stop-opacity: 0;"></stop></linearGradient><path class="st1" d="M134.4,307c6,1.8,12,3.6,18.1,4.9c3.7,0.7,7.5,1.1,11.3,1.3l39.3,35.8l54.6-58.4l-77.1-25.6L77.9,278.8
		C87.8,286,122.8,303.4,134.4,307z"></path></g><g id="ramen"><path class="st2" d="M168.8,274.9c0,0,3.4,24.7,50.8,24.7c57.5,0,55.8-34,55.8-34"></path><path class="st3" d="M168.8,274.9c0,0,3.4,24.7,50.8,24.7c57.5,0,55.8-34,55.8-34"></path><path class="st2" d="M115.8,185c0,0,5.5,106.2,108.6,104c95.1-2.1,100.2-104,100.2-104H115.8z"></path><path class="st4" d="M215.4,280.5c-11.2-6.9-20.7-17-28.3-27.7c-14.1-19.8-21.2-43.5-22.1-67.6h-49.1c0,0,5.5,106.2,108.6,103.9
		c3.5-0.1,6.8-0.3,10.1-0.6C227.7,286.8,221.3,284.1,215.4,280.5z"></path><ellipse class="st5" cx="220.2" cy="185.8" rx="104.4" ry="61.4"></ellipse><path class="st2" d="M220.2,150.8c48,0,88.1,19.4,97,45.1c1.2-3.5,1.8-7.2,1.8-10.9c0-30.9-44.3-56-98.9-56s-98.9,25.1-98.9,56
		c0,3.7,0.6,7.4,1.9,10.9C132.1,170.2,172.1,150.8,220.2,150.8z"></path><path class="st6" d="M252.3,238c-3.6,0.7-7.3,1.3-11.1,1.8C245.1,240.6,248.9,240.7,252.3,238z"></path><path class="st7" d="M151.2,213c7.9-0.3,13.6,6,21.1,7c8.6,1.2,11.5-9.6,15.2-15.3c3.4-5.2,8.3-9.7,14.8-9.6
		c6.9,0.1,18.4,11.3,24.3,6.5c2.6-2.1,3.2-7,4.8-9.9c1.3-2.5,3.2-4.6,5.5-6.3c6.2-4.5,13.2-3.8,20.1-1.5c3.8,1.2,9.1,3.6,13,1.4
		s3.4-8.1,4.6-11.7c1.5-4.2,4.3-7.8,8-10.2c-2.6-1.2-5.3-2.3-8.1-3.4c-1,2.1-2.4,4-4.2,5.5c-6.8,5.8-15.3,2.9-22.6-0.1
		c-4.7-1.9-10.8-4.3-14.8,0.2c-1.9,2.1-2.9,4.9-4.2,7.4c-2.7,4.9-6.6,9.2-12.6,9.2c-6.7,0.1-11.5-5.8-17.9-6.4
		c-8.6-0.7-10.8,12.5-15.9,17.4c-4.7,4.3-11.4,5.8-17.6,3.9c-3.1-1-5.4-3-7.9-5c-4.8-3.8-10.6-2.9-12.8,3.2
		c-2.3,6.5-3.4,12.2-10.1,15.6c-0.4,0.2-0.7,0.3-1.1,0.5c2.4,2.5,4.9,4.8,7.6,6.8C143.3,215.1,147.1,213.2,151.2,213z"></path><path class="st7" d="M134.5,201.1c2.4-3.6,2.2-8.4,4.4-12.1c3.8-5.8,11.1-8.2,17.6-5.7c3.9,1.6,6.3,5.4,10.2,6.8
		c5.4,1.9,10.2-0.9,13-5.4c4.1-6.5,6.8-15,15.6-16.1c2.9-0.3,5.9,0.2,8.6,1.5c3.6,1.5,8.1,5.2,12.2,4.8c6.5-0.5,8.2-11.1,12.2-15.1
		c6.2-6.1,14.5-4.2,21.7-1.3c4.9,2,11.6,5.5,16.2,0.9c0.5-0.5,0.9-1.1,1.3-1.7c-12.5-3.8-25.5-6-38.6-6.6c-2.9,4.4-6.6,8-12.1,9.6
		c-4,1.1-8.3,1.1-12.2-0.2c-4.6-1.5-9.1-6.9-14.2-5.9c-5.7,1.2-9,8.2-12.8,11.9c-2.9,2.8-6.4,4.9-10.2,6.2c-7.3,2.4-15.3,1.5-22-2.4
		c-11.1,7.2-19,16.1-22.3,25.8c1.2,3.4,2.8,6.5,4.8,9.4C130.7,204.8,133,203.3,134.5,201.1z"></path><path class="st7" d="M219.5,150.8c-5.6,0-11.1,0.3-16.4,0.8c1.2,0.6,2.4,1.2,3.6,1.6C211.1,155,216.1,154.1,219.5,150.8z"></path><path class="st7" d="M170,163.3c2.6-1.9,4.9-4.3,6.9-6.9c-8.1,2.2-16,5.2-23.5,9.1C159,167.3,165.1,166.5,170,163.3z"></path><path class="st7" d="M199.8,219c5.3-4.3,11.9-6.2,18.4-3.8c6.8,2.5,17.4,14.6,23.1,4.7c3.5-6,4.3-12.4,11.7-15
		c8.2-2.9,13.4,3,20.9,4.4c9.9,1.9,12.7-11,18-16.9c4.6-5.2,11.1-8.5,18-9.1c-5.4-6.4-11.9-11.7-19.2-15.7c-1.4,0.4-2.8,1-4,1.8
		c-4.4,3-5.2,7.3-6.3,12.1c-1.7,7.5-6.7,12.1-14.6,12c-9.4-0.2-20.8-9.5-27.7,1.3c-4,6.3-4.2,14.4-13.4,15.4c-4.1,0.4-8-1-11.6-2.9
		c-4.7-2.4-9.8-6.7-15.1-3.4c-7.1,4.3-8.3,15.2-14.9,20.4c-5.8,4.7-12.7,3.6-19.1,0.8c-3.6-1.6-7.4-4.4-11.4-4.6
		c-2.2-0.1-4.4,0.6-6.1,2.1c10.2,6.4,22.9,11.5,37.3,14.7C190.6,233.9,194.1,223.6,199.8,219z"></path><path class="st7" d="M300.5,194.3c-6.5,4.8-8.2,13.1-14.1,18.4c-4.6,4.2-10.4,5-16.1,3c-3.7-1.3-7.2-3.8-11.1-4.3
		c-5.4-0.6-7.7,3.1-9.6,7.5c-2.4,5.6-4.8,10.9-11.4,12.1c-6.9,1.2-12.5-3.1-18-6.6c-13.9-8.8-19.1,5.4-27.3,14.4
		c5.7,0.9,11.5,1.6,17.3,1.9c6.2-4.4,14.1-5.8,21.5-3.8c3.1,0.8,6.4,2.1,9.5,2.8c3.8-0.5,7.5-1.1,11.1-1.8c0.4-0.3,0.8-0.7,1.2-1.1
		c4.1-4.2,6.6-8.6,12.7-10.2c2.7-0.7,5.4-0.8,8.1-0.2c2.9,0.5,5.5,2.2,8.2,1.9c1.2-0.6,2.4-1.1,3.5-1.7c1.7-1.8,2.4-4.5,3.9-6.7
		c1.4-1.9,3-3.6,4.9-5c4.1-3.3,9.1-5.3,14.4-5.7c3.5-4,6.1-8.5,7.9-13.4c-0.7-1.9-1.5-3.7-2.4-5.5
		C309.7,190,304.6,191.4,300.5,194.3z"></path><path class="st8" d="M144.1,195.3c2.2-6.1,8-7,12.8-3.2c2.5,2,4.8,4,7.9,5c6.1,1.9,12.8,0.5,17.6-3.9c5.1-4.9,7.3-18.1,15.9-17.4
		c6.4,0.5,11.1,6.4,17.9,6.4c6-0.1,9.9-4.3,12.6-9.2c1.4-2.5,2.4-5.2,4.2-7.4c3.9-4.5,10.1-2.1,14.8-0.2c7.3,3,15.8,5.9,22.6,0.1
		c1.8-1.5,3.2-3.4,4.2-5.5c-2.3-0.9-4.6-1.6-7-2.4c-0.4,0.6-0.8,1.2-1.3,1.7c-4.6,4.6-11.3,1.1-16.2-0.9c-7.2-2.9-15.5-4.8-21.7,1.3
		c-4.1,4.1-5.7,14.6-12.2,15.1c-4.1,0.3-8.6-3.4-12.2-4.8c-2.7-1.2-5.6-1.7-8.6-1.5c-8.9,1.1-11.5,9.6-15.6,16.1
		c-2.9,4.5-7.6,7.3-13,5.4c-3.9-1.4-6.3-5.2-10.2-6.8c-6.5-2.5-13.8-0.1-17.6,5.8c-2.3,3.7-2,8.5-4.4,12.1c-1.5,2.2-3.9,3.8-6.5,4.3
		c1.5,2.1,3.1,4.2,4.9,6c0.4-0.2,0.8-0.3,1.1-0.5C140.8,207.4,141.9,201.8,144.1,195.3z"></path><path class="st8" d="M164.1,224.9c6.4,2.9,13.2,3.9,19.1-0.8c6.6-5.2,7.8-16.1,14.9-20.4c5.4-3.2,10.4,1,15.1,3.4
		c3.6,1.8,7.5,3.3,11.6,2.9c9.1-1,9.4-9.1,13.4-15.4c6.9-10.7,18.3-1.4,27.7-1.3c7.9,0.2,12.9-4.5,14.6-12c1.1-4.8,2-9.1,6.3-12.1
		c1.2-0.8,2.6-1.5,4-1.8c-2.5-1.4-5.2-2.8-8-4.1c-3.7,2.4-6.5,6-8,10.2c-1.2,3.6-0.9,9.6-4.6,11.7s-9.2-0.2-13-1.4
		c-6.9-2.2-13.9-3-20.1,1.5c-2.3,1.6-4.2,3.8-5.5,6.3c-1.6,2.9-2.1,7.7-4.8,9.9c-5.9,4.8-17.4-6.3-24.3-6.5
		c-6.6-0.1-11.5,4.4-14.8,9.6c-3.7,5.7-6.6,16.6-15.2,15.3c-7.5-1.1-13.2-7.3-21.1-7c-4.1,0.2-8,2.1-10.7,5.2
		c1.9,1.5,3.9,2.9,6.1,4.2c1.7-1.5,3.8-2.3,6.1-2.1C156.7,220.5,160.6,223.3,164.1,224.9z"></path><path class="st8" d="M291.9,192.3c-5.3,5.9-8.1,18.8-18,16.9c-7.5-1.4-12.7-7.3-20.9-4.4c-7.4,2.6-8.2,9-11.7,15
		c-5.7,9.9-16.2-2.2-23.1-4.7c-6.6-2.4-13.2-0.5-18.4,3.8c-5.7,4.7-9.1,14.9-15.8,18.2c2.9,0.6,5.9,1.2,9,1.7
		c8.1-9,13.4-23.2,27.3-14.4c5.4,3.4,11.1,7.8,18,6.6c6.6-1.2,9-6.5,11.4-12.1c1.9-4.4,4.2-8.1,9.6-7.5c4,0.4,7.4,3,11.1,4.3
		c5.8,2,11.5,1.2,16.1-3c5.9-5.3,7.6-13.7,14.1-18.4c4.1-3,9.1-4.4,14.2-3.9c-1.4-2.5-3-4.9-4.8-7.2
		C303,183.8,296.5,187.1,291.9,192.3z"></path><path class="st8" d="M167.6,172.5c3.8-1.2,7.3-3.4,10.2-6.2c3.8-3.7,7.1-10.7,12.8-11.9c5-1,9.6,4.4,14.2,5.9
		c4,1.3,8.2,1.4,12.2,0.2c5.4-1.6,9.2-5.2,12.1-9.6c-2.9-0.2-5.9-0.2-8.9-0.2h-0.7c-3.4,3.3-8.4,4.2-12.8,2.5
		c-1.2-0.5-2.5-1-3.6-1.6c-8.9,0.9-17.6,2.5-26.2,4.8c-2,2.6-4.3,4.9-6.9,6.9c-4.9,3.2-11,4-16.6,2.2c-2.7,1.4-5.3,2.9-7.9,4.6
		C152.2,174,160.2,174.8,167.6,172.5z"></path><path class="st8" d="M241.2,239.8c-3.2-0.7-6.4-2-9.5-2.8c-7.3-2-15.2-0.6-21.4,3.8c3.3,0.2,6.6,0.3,9.9,0.3
		C227.2,241,234.2,240.6,241.2,239.8z"></path><path class="st9" d="M238.4,211.7c-2.6,0-2.6,4,0,4S241,211.7,238.4,211.7z"></path><path class="st9" d="M211.3,179.1c-2.6,0-2.6,4,0,4S213.9,179.1,211.3,179.1z"></path><path class="st9" d="M209,234.2c-2.6,0-2.6,4,0,4S211.6,234.2,209,234.2z"></path><path class="st9" d="M237.5,234.7c-2.6,0-2.6,4,0,4S240.1,234.7,237.5,234.7z"></path><path class="st9" d="M184,223.3c-0.9,0.1-1.6,0.9-1.5,1.8c0.1,0.8,0.7,1.5,1.5,1.5c0.9-0.1,1.6-0.9,1.5-1.8
		C185.5,224,184.8,223.3,184,223.3z"></path><path class="st10" d="M150,130.1c0,0-2.7,3.9-3.3,6.4s13.4,38.8,19.1,41.1s39.4-4.7,39.4-4.7s4.1-4.2,4.1-4.2"></path><path class="st4" d="M150,130.1c0,0-2.7,3.9-3.3,6.4s13.4,38.8,19.1,41.1s39.4-4.7,39.4-4.7s4.1-4.2,4.1-4.2"></path><path class="st9" d="M209.4,168.7c0,0-6.4-33.1-16.4-38.8s-37.5-3.2-43,0.3s13.1,43.9,18.6,45.2S209.4,168.7,209.4,168.7z"></path><path class="st10" d="M205.7,166.6c0,0-5.6-29.2-14.4-34.3s-33.1-2.9-38,0.3s11.6,38.7,16.4,39.9S205.7,166.6,205.7,166.6z"></path><path class="st11" d="M166.9,145c-0.7-1.7,0.1-3.6,1.8-4.3c0.2-0.1,0.5-0.2,0.8-0.2c4.5-0.7,11.4-1.4,14.4-0.1
		c4.5,1.9,8.8,15.9,7.1,17.1s-16.4,3.7-17.7,2.2C172.4,158.6,168.9,150.1,166.9,145z"></path><path class="st10" d="M127,142.7c0,0-3.1,3.6-4,6s9.1,40.1,14.6,43s39.7-0.4,39.7-0.4s4.5-3.7,4.5-3.7"></path><path class="st4" d="M127,142.7c0,0-3.1,3.6-4,6s9.1,40.1,14.6,43s39.7-0.4,39.7-0.4s4.5-3.7,4.5-3.7"></path><path class="st9" d="M181.9,187.5c0,0-2.7-33.6-12-40.4s-36.9-7.3-42.8-4.4s8.3,45.1,13.5,47S181.9,187.5,181.9,187.5z"></path><path class="st10" d="M178.5,185.1c0,0-2.4-29.6-10.6-35.6s-32.6-6.4-37.8-3.9s7.3,39.8,11.9,41.4S178.5,185.1,178.5,185.1z"></path><path class="st11" d="M142.2,159.3c-0.5-1.8,0.5-3.6,2.3-4.1c0.3-0.1,0.5-0.1,0.8-0.1c4.6-0.2,11.5-0.1,14.3,1.4
		c4.2,2.4,7,16.7,5.2,17.8s-16.8,1.9-17.8,0.3C146.2,173.4,143.7,164.6,142.2,159.3z"></path><ellipse class="st11" cx="162.3" cy="201.6" rx="33.4" ry="19.3"></ellipse><ellipse class="st4" cx="162.3" cy="201.6" rx="33.4" ry="19.3"></ellipse><ellipse class="st11" cx="162.3" cy="195.8" rx="33.4" ry="19.3"></ellipse><ellipse class="st8" cx="166.7" cy="197.8" rx="23.1" ry="11.5"></ellipse><ellipse class="st11" cx="174.3" cy="195.8" rx="7.6" ry="4.4"></ellipse><path class="st12" d="M306.6,212.4c1.1-1.4,0.8-3.4-0.5-4.5c-1.4-1.1-3.4-0.9-4.5,0.5c-0.8,1.3-1.8,2.4-3,3.4c-1.4,1-1.7,3-0.7,4.5
		s3,1.7,4.5,0.7C304,215.6,305.4,214.1,306.6,212.4z"></path><path class="st12" d="M302.9,198.1c-0.3-1.7-1.9-2.9-3.7-2.6c-1.6,0.3-2.8,1.7-2.7,3.4c0.1,0.5,0,1.1-0.1,1.6
		c0-0.2-0.2,0.6-0.3,0.8l-0.2,0.4c-0.1,0.1-0.1,0.2-0.2,0.2c-1.1,1.4-0.9,3.4,0.5,4.5s3.4,0.9,4.5-0.5
		C302.4,203.6,303.1,200.8,302.9,198.1z"></path><path class="st12" d="M311.6,201.6c1.3-2.7,1.8-5.7,1.7-8.7c-0.2-1.7-1.8-3-3.5-2.8c-1.7,0.2-3,1.8-2.8,3.6c0,1.9-0.4,3.8-1.2,5.5
		c-0.6,1.7,0.2,3.5,1.9,4.1C309.2,203.8,310.9,203.1,311.6,201.6z"></path><path class="st12" d="M285.6,225c1.6-0.8,2.3-2.6,1.6-4.2c-0.7-1.6-2.6-2.3-4.2-1.6c-1.3,0.8-2.7,1.3-4.2,1.6
		c-1.7,0.3-2.9,2-2.6,3.7c0.3,1.7,1.9,2.8,3.6,2.6C281.8,226.7,283.8,226,285.6,225z"></path><path class="st12" d="M288.9,210.6c0.6-1.7-0.2-3.5-1.9-4.1c-1.7-0.6-3.5,0.2-4.1,1.9l0,0c-0.2,0.5-0.5,1-0.8,1.4
		c0.1-0.1-0.5,0.5-0.6,0.6s-0.2,0.2-0.4,0.2l-0.3,0.1c-1.6,0.8-2.2,2.7-1.4,4.3c0.7,1.5,2.5,2.1,4,1.5
		C285.9,215.3,287.9,213.2,288.9,210.6z"></path><path class="st12" d="M295.1,217.8c2.4-1.9,4.3-4.3,5.6-7c0.6-1.6-0.2-3.5-1.9-4.1c-1.6-0.6-3.5,0.2-4.1,1.9
		c-0.9,1.7-2.1,3.2-3.7,4.3c-1.4,1.1-1.7,3.1-0.6,4.5s3.1,1.7,4.5,0.6C294.9,218,295,217.9,295.1,217.8L295.1,217.8z"></path><path class="st12" d="M290.1,214.9c1.1-1.4,0.8-3.4-0.5-4.5c-1.4-1.1-3.4-0.9-4.5,0.5c-0.8,1.3-1.8,2.4-3,3.4c-1.4,1-1.7,3-0.7,4.5
		s3,1.7,4.5,0.7C287.5,218.1,288.9,216.6,290.1,214.9z"></path><path class="st12" d="M286.4,200.6c-0.3-1.7-1.9-2.9-3.7-2.6c-1.6,0.3-2.8,1.7-2.7,3.4c0.1,0.5,0,1.1-0.1,1.6
		c0-0.2-0.2,0.6-0.3,0.8c-0.1,0.1-0.1,0.3-0.2,0.4c-0.1,0.1-0.1,0.2-0.2,0.3c-1.1,1.4-0.9,3.4,0.5,4.5s3.4,0.9,4.5-0.5
		C285.9,206.1,286.6,203.3,286.4,200.6z"></path><path class="st12" d="M295.1,204.1c1.3-2.7,1.8-5.7,1.7-8.7c-0.2-1.7-1.8-3-3.5-2.8c-1.7,0.2-3,1.8-2.8,3.6c0,1.9-0.4,3.8-1.2,5.5
		c-0.6,1.7,0.2,3.5,1.9,4.1C292.7,206.3,294.4,205.6,295.1,204.1z"></path><path class="st13" d="M290.1,214.9c1.1-1.4,0.8-3.4-0.5-4.5c-1.4-1.1-3.4-0.9-4.5,0.5c-0.8,1.3-1.8,2.4-3,3.4c-1.4,1-1.7,3-0.7,4.5
		s3,1.7,4.5,0.7C287.5,218.1,288.9,216.6,290.1,214.9z"></path><path class="st13" d="M290.1,214.9c1.1-1.4,0.8-3.4-0.5-4.5c-1.4-1.1-3.4-0.9-4.5,0.5c-0.8,1.3-1.8,2.4-3,3.4c-1.4,1-1.7,3-0.7,4.5
		s3,1.7,4.5,0.7C287.5,218.1,288.9,216.6,290.1,214.9z"></path><path class="st12" d="M274.1,234.6c1.5-0.9,2-2.8,1.2-4.4c-0.9-1.5-2.8-2-4.4-1.2c-1.2,0.9-2.6,1.6-4.1,2c-1.7,0.5-2.6,2.3-2.1,4
		c0.5,1.6,2.1,2.5,3.7,2.2C270.4,236.7,272.4,235.8,274.1,234.6z"></path><path class="st12" d="M275.9,220c0.5-1.7-0.6-3.5-2.3-3.9s-3.5,0.6-3.9,2.3l0,0c-0.1,0.5-0.4,1-0.7,1.5c0.1-0.1-0.5,0.5-0.6,0.6
		l-0.3,0.3c-0.1,0-0.2,0.1-0.3,0.2c-1.5,0.9-2.1,2.8-1.2,4.4c0.9,1.5,2.8,2.1,4.4,1.2C273.4,224.9,275.1,222.7,275.9,220z"></path><path class="st12" d="M282.8,226.5c2.2-2.1,3.8-4.6,4.8-7.5c0.4-1.7-0.6-3.4-2.2-3.9c-1.7-0.4-3.4,0.6-3.9,2.2
		c-0.7,1.8-1.8,3.4-3.2,4.7c-1.2,1.3-1.2,3.3,0,4.5C279.5,227.8,281.5,227.8,282.8,226.5L282.8,226.5z"></path><path class="st12" d="M276.9,213.6c1-1.4,0.8-3.4-0.5-4.5c-1.4-1.1-3.4-0.8-4.5,0.5c-0.8,1.3-1.8,2.4-3,3.4
		c-1.4,1.1-1.6,3.1-0.5,4.5c1,1.3,2.9,1.6,4.3,0.7C274.4,216.9,275.8,215.4,276.9,213.6z"></path><path class="st12" d="M273.2,199.4c-0.3-1.7-1.9-2.9-3.7-2.6c-1.6,0.3-2.8,1.7-2.7,3.4c0.1,0.5,0,1.1-0.1,1.6
		c0-0.2-0.2,0.6-0.3,0.8l-0.2,0.4l-0.2,0.2c-1.1,1.4-0.9,3.4,0.5,4.5s3.4,0.9,4.5-0.5C272.7,204.9,273.5,202.1,273.2,199.4z"></path><path class="st12" d="M282,202.9c1.3-2.7,1.8-5.7,1.7-8.8c-0.2-1.7-1.8-3-3.5-2.8c-1.7,0.2-3,1.8-2.8,3.5c0,1.9-0.4,3.8-1.2,5.5
		c-0.7,1.6,0.1,3.5,1.7,4.2S281.3,204.6,282,202.9L282,202.9z"></path><path class="st12" d="M298.3,203.9c-0.3,1.7,0.8,3.4,2.5,3.7c1.7,0.3,3.4-0.8,3.8-2.5c0.1-0.5,0.3-1,0.6-1.5
		c-0.1,0.1,0.4-0.5,0.5-0.7l0.3-0.3l0.2-0.2c1.5-0.9,2-2.9,1.1-4.4c-0.9-1.5-2.9-2-4.4-1.1c-0.1,0.1-0.2,0.1-0.2,0.2
		C300.4,198.8,298.9,201.2,298.3,203.9z"></path><path class="st13" d="M275.9,220c0.5-1.7-0.6-3.5-2.3-3.9s-3.5,0.6-3.9,2.3l0,0c-0.1,0.5-0.4,1-0.7,1.5c0.1-0.1-0.5,0.5-0.6,0.6
		l-0.3,0.3c-0.1,0-0.2,0.1-0.3,0.2c-1.5,0.9-2.1,2.8-1.2,4.4c0.9,1.5,2.8,2.1,4.4,1.2C273.4,224.9,275.1,222.7,275.9,220z"></path><path class="st13" d="M273.2,199.4c-0.3-1.7-1.9-2.9-3.7-2.6c-1.6,0.3-2.8,1.7-2.7,3.4c0.1,0.5,0,1.1-0.1,1.6
		c0-0.2-0.2,0.6-0.3,0.8l-0.2,0.4l-0.2,0.2c-1.1,1.4-0.9,3.4,0.5,4.5s3.4,0.9,4.5-0.5C272.7,204.9,273.5,202.1,273.2,199.4z"></path><path class="st13" d="M298.3,203.9c-0.3,1.7,0.8,3.4,2.5,3.7c1.7,0.3,3.4-0.8,3.8-2.5c0.1-0.5,0.3-1,0.6-1.5
		c-0.1,0.1,0.4-0.5,0.5-0.7l0.3-0.3l0.2-0.2c1.5-0.9,2-2.9,1.1-4.4c-0.9-1.5-2.9-2-4.4-1.1c-0.1,0.1-0.2,0.1-0.2,0.2
		C300.4,198.8,298.9,201.2,298.3,203.9z"></path><path class="st12" d="M284.6,203.9c-1.5,1.7-2.6,3.7-3.2,5.9c-0.2,1.3,0.6,2.6,1.9,2.8c1.3,0.2,2.5-0.6,2.8-1.9
		c0.4-1.4,1.2-2.6,2.2-3.7c0.9-1,0.8-2.5-0.3-3.4S285.5,202.9,284.6,203.9L284.6,203.9L284.6,203.9z"></path><path class="st12" d="M270,223.4c1.1-1.4,0.8-3.4-0.5-4.5c-1.4-1.1-3.4-0.8-4.5,0.5c-0.8,1.3-1.8,2.4-3,3.4c-1.5,0.9-2,2.8-1.2,4.4
		c0.9,1.5,2.8,2,4.4,1.2c0.2-0.1,0.3-0.2,0.5-0.4C267.4,226.7,268.8,225.2,270,223.4z"></path><path class="st12" d="M266.2,209.1c-0.3-1.7-1.9-2.9-3.7-2.6c-1.6,0.3-2.8,1.7-2.7,3.4c0.1,0.5,0,1.1-0.1,1.6
		c0-0.2-0.2,0.6-0.3,0.8s-0.1,0.2-0.2,0.4l-0.2,0.2c-1.1,1.4-0.9,3.4,0.5,4.5s3.4,0.9,4.5-0.5C265.8,214.7,266.5,211.9,266.2,209.1z
		"></path><path class="st12" d="M275,212.7c1.3-2.7,1.8-5.7,1.7-8.8c-0.2-1.7-1.8-3-3.5-2.8c-1.7,0.2-3,1.8-2.8,3.5c0,1.9-0.4,3.8-1.2,5.5
		c-0.7,1.6,0.1,3.5,1.8,4.2C272.5,215,274.3,214.3,275,212.7L275,212.7z"></path><path class="st14" d="M311.6,201.6c1.3-2.7,1.8-5.7,1.7-8.7c-0.2-1.7-1.8-3-3.5-2.8c-1.7,0.2-3,1.8-2.8,3.6c0,1.9-0.4,3.8-1.2,5.5
		c-0.6,1.7,0.2,3.5,1.9,4.1C309.2,203.8,310.9,203.1,311.6,201.6z"></path><path class="st14" d="M295.1,217.8c2.4-1.9,4.3-4.3,5.6-7c0.6-1.6-0.2-3.5-1.9-4.1c-1.6-0.6-3.5,0.2-4.1,1.9
		c-0.9,1.7-2.1,3.2-3.7,4.3c-1.4,1.1-1.7,3.1-0.6,4.5s3.1,1.7,4.5,0.6C294.9,218,295,217.9,295.1,217.8L295.1,217.8z"></path><path class="st14" d="M295.1,204.1c1.3-2.7,1.8-5.7,1.7-8.7c-0.2-1.7-1.8-3-3.5-2.8c-1.7,0.2-3,1.8-2.8,3.6c0,1.9-0.4,3.8-1.2,5.5
		c-0.6,1.7,0.2,3.5,1.9,4.1C292.7,206.3,294.4,205.6,295.1,204.1z"></path><path class="st14" d="M282.8,226.5c2.2-2.1,3.8-4.6,4.8-7.5c0.4-1.7-0.6-3.4-2.2-3.9c-1.7-0.4-3.4,0.6-3.9,2.2
		c-0.7,1.8-1.8,3.4-3.2,4.7c-1.2,1.3-1.2,3.3,0,4.5C279.5,227.8,281.5,227.8,282.8,226.5L282.8,226.5z"></path><path class="st14" d="M282,202.9c1.3-2.7,1.8-5.7,1.7-8.8c-0.2-1.7-1.8-3-3.5-2.8c-1.7,0.2-3,1.8-2.8,3.5c0,1.9-0.4,3.8-1.2,5.5
		c-0.7,1.6,0.1,3.5,1.7,4.2S281.3,204.6,282,202.9L282,202.9z"></path><path class="st14" d="M284.6,203.9c-1.5,1.7-2.6,3.7-3.2,5.9c-0.2,1.3,0.6,2.6,1.9,2.8c1.3,0.2,2.5-0.6,2.8-1.9
		c0.4-1.4,1.2-2.6,2.2-3.7c0.9-1,0.8-2.5-0.3-3.4S285.5,202.9,284.6,203.9L284.6,203.9L284.6,203.9z"></path><path class="st14" d="M275,212.7c1.3-2.7,1.8-5.7,1.7-8.8c-0.2-1.7-1.8-3-3.5-2.8c-1.7,0.2-3,1.8-2.8,3.5c0,1.9-0.4,3.8-1.2,5.5
		c-0.7,1.6,0.1,3.5,1.8,4.2C272.5,215,274.3,214.3,275,212.7L275,212.7z"></path><path class="st15" d="M308.9,126.9c-4.4-2-8.4-4.8-12.8-6.8c-3.2-1.5-6.7-2.4-10-3.7l-1.4-0.5l-7.6-2.4c-1.2-0.3-2.4,0-3.5,0.6
		c-1.8,1.5-1.7,5.6-2.5,7.9c-1.6,4.3-2.8,8.7-3.8,13.2c-0.6,3.2-0.6,6.6-1.7,9.7s-3.1,5.6-4.5,8.5l29.9,13.3
		C298.9,154.3,302.1,139.8,308.9,126.9z"></path><path class="st11" d="M251.2,165.5c0,0,0-0.1-0.1-0.1l0,0L251.2,165.5z"></path><path class="st11" d="M251,165.5h0.1H251L251,165.5z"></path><path class="st11" d="M293.8,154.2c-1.2-1.1-2.7-1.6-4.3-1.6c-0.2-0.7-0.5-1.3-0.9-1.9c-1-1.3-2.4-2.3-4-2.8
		c-1.5-0.7-3.2-0.8-4.7-0.3l-0.2,0.1c-2-2.9-5.5-5.1-9.1-3.8c-0.8,0.3-1.5,0.7-2.1,1.4c-2.4-1.4-5.3-1.3-7.5,0.2
		c-1.3,0.9-2.3,2.2-2.7,3.7c-3.1-0.2-6.1,2.5-7.2,5.3c-0.4,0.9-0.5,1.9-0.6,2.8c-2.7,0.7-5,2.6-6,5.2c-1.3,3.3-0.2,7,2.6,9.1
		c0,0.1-0.1,0.2-0.2,0.3c-0.9,1.9-0.9,4.1,0.2,5.9c1.5,2.5,4.1,3.6,6.8,3.7c1,2.5,3.1,4.4,5.7,5.1c1.7,0.3,3.4,0.1,4.9-0.8
		c0.3-0.2,0.7-0.4,1-0.6c0,0.1,0.1,0.1,0.2,0.2c2.8,2.7,7.5,4.1,11.1,1.9c1.9-1.1,3-3.2,2.9-5.3c0.2,0,0.4,0,0.7,0.1
		c2.8,0,6.8-0.6,8.7-2.9c1.1-1.4,1.5-3.3,1-5c0-0.1-0.1-0.3-0.1-0.4c1.2,0.1,2.4-0.3,3.2-1.2c2-2.2,2.7-5.3,1.6-8.1
		c0.5-0.5,0.9-1.1,1-1.8C296.2,159.9,296.2,156.4,293.8,154.2z"></path><path class="st4" d="M293.8,154.2c-1.2-1.1-2.7-1.6-4.3-1.6c-0.2-0.7-0.5-1.3-0.9-1.9c-1-1.3-2.4-2.3-4-2.8
		c-1.5-0.7-3.2-0.8-4.7-0.3l-0.2,0.1c-2-2.9-5.5-5.1-9.1-3.8c-0.8,0.3-1.5,0.7-2.1,1.4c-2.4-1.4-5.3-1.3-7.5,0.2
		c-1.3,0.9-2.3,2.2-2.7,3.7c-3.1-0.2-6.1,2.5-7.2,5.3c-0.4,0.9-0.5,1.9-0.6,2.8c-2.7,0.7-5,2.6-6,5.2c-1.3,3.3-0.2,7,2.6,9.1
		c0,0.1-0.1,0.2-0.2,0.3c-0.9,1.9-0.9,4.1,0.2,5.9c1.5,2.5,4.1,3.6,6.8,3.7c1,2.5,3.1,4.4,5.7,5.1c1.7,0.3,3.4,0.1,4.9-0.8
		c0.3-0.2,0.7-0.4,1-0.6c0,0.1,0.1,0.1,0.2,0.2c2.8,2.7,7.5,4.1,11.1,1.9c1.9-1.1,3-3.2,2.9-5.3c0.2,0,0.4,0,0.7,0.1
		c2.8,0,6.8-0.6,8.7-2.9c1.1-1.4,1.5-3.3,1-5c0-0.1-0.1-0.3-0.1-0.4c1.2,0.1,2.4-0.3,3.2-1.2c2-2.2,2.7-5.3,1.6-8.1
		c0.5-0.5,0.9-1.1,1-1.8C296.2,159.9,296.2,156.4,293.8,154.2z"></path><path class="st11" d="M248.4,161.9c0,0,0-0.1,0-0.1l0,0V161.9z"></path><path class="st11" d="M248.2,161.9h0.1H248.2z"></path><path class="st11" d="M290.9,150.7c-1.2-1.1-2.7-1.6-4.3-1.6c-0.2-0.7-0.5-1.3-0.9-1.9c-1-1.3-2.4-2.3-4-2.8
		c-1.5-0.7-3.2-0.8-4.8-0.3c-0.1,0-0.1,0.1-0.2,0.1c-2-3-5.5-5.1-9.1-3.8c-0.8,0.3-1.5,0.8-2.1,1.4c-2.3-1.3-5.2-1.3-7.5,0.2
		c-1.3,0.9-2.3,2.2-2.7,3.7c-3.1-0.2-6.1,2.5-7.2,5.3c-0.3,0.9-0.5,1.9-0.6,2.8c-2.7,0.7-5,2.6-6,5.2c-1.3,3.3-0.2,7,2.6,9.1
		c-0.1,0.1-0.1,0.2-0.2,0.3c-0.9,1.9-0.8,4.1,0.2,5.9c1.5,2.5,4.1,3.6,6.8,3.7c1,2.5,3.1,4.4,5.7,5.1c1.7,0.3,3.4,0.1,4.9-0.8
		c0.3-0.2,0.7-0.4,1-0.6c0.1,0.1,0.1,0.1,0.2,0.2c2.8,2.7,7.5,4.1,11.1,2c1.9-1.1,3-3.2,2.9-5.3c0.2,0,0.4,0.1,0.7,0.1
		c2.8,0,6.8-0.6,8.7-2.9c1.1-1.4,1.5-3.3,1-5c0-0.1-0.1-0.3-0.1-0.4c1.2,0.1,2.4-0.3,3.2-1.2c2-2.2,2.7-5.3,1.6-8.1
		c0.5-0.5,0.9-1.1,1-1.8C293.4,156.3,293.4,152.9,290.9,150.7z"></path><path class="st9" d="M276.2,152.7c-4.8-2-11.2,0.2-15,3.3c-3.1,2.5-5,7.3-2.3,10.8c3.2,4.1,10.2,3,14.2,0.8c3.7-2.1,5-7.1,0.2-9
		c-3.5-1.4-10.6,1.4-6.9,5.7c0.3,0.3,0.8,0.4,1.2,0.1c0.1-0.1,0.2-0.2,0.2-0.3c-0.2-0.1-0.3-0.2-0.4-0.4c-1-2.4,1.2-3.9,3.4-4.1
		c0.3-0.1,0.7-0.1,1,0.1c0.2,0,0.4,0.1,0.6,0.1c1.4,0.4,2.6,1.9,2.3,3.4c-0.3,0.9-0.9,1.7-1.7,2.3l0.1,0.4l-0.9,0.5
		c-1.7,1.6-6.4,2.1-8.7,1.5c-7.4-2-4-9.6,0.9-12.1c3.9-2.1,9.1-3.4,12.9-0.6c4,3.1,4.2,8.7,1.7,12.8c-4.5,7.4-17.8,9.1-23.6,2.6
		c-3.1-3.5-2-9.2,0.1-13.1c2.4-4.2,6.5-7,11.3-7.9c1-0.2,0.5-1.6-0.5-1.4c-5.9,1.1-10.9,5.2-13.1,10.8c-1.7,4.4-2.2,10.6,1.8,13.8
		c8.4,6.8,24.8,3,27-8.3C282.9,159.7,280.7,154.6,276.2,152.7z"></path><path class="st15" d="M338.8,165.4c-2.3-4.2-3.7-8.9-6-13.2c-1.7-3.1-3.8-6-5.7-9c-0.2-0.3-0.5-0.8-0.7-1.2l-4.5-6.5
		c-0.8-0.9-1.9-1.5-3.1-1.6c-2.3,0.1-4.8,3.4-6.8,4.8c-3.9,2.5-7.5,5.2-11,8.2c-2.5,2.1-4.5,4.9-7.3,6.6s-5.9,2.5-8.7,4l15.6,28.7
		C314.1,181.1,325.5,171.5,338.8,165.4z"></path><path class="st11" d="M272.3,163.1c0,0,0-0.1,0-0.1l0,0C272.3,163,272.3,163.1,272.3,163.1z"></path><path class="st11" d="M272.2,163L272.2,163C272.2,163.1,272.2,163,272.2,163L272.2,163z"></path><path class="st11" d="M311.5,183.2c-0.2-1.6-0.9-3-2.1-4.1c0.3-0.6,0.5-1.3,0.6-2c0.1-1.7-0.3-3.3-1.1-4.8
		c-0.7-1.5-1.9-2.7-3.3-3.4l-0.2-0.1c0.5-3.6-0.7-7.4-4.3-8.9c-0.8-0.3-1.6-0.5-2.5-0.4c-0.8-2.6-3.1-4.5-5.8-4.9
		c-1.6-0.2-3.2,0.1-4.5,0.9c-2.2-2.2-6.2-2.2-8.9-0.9c-0.9,0.4-1.6,1-2.3,1.8c-2.5-1.3-5.4-1.4-7.9-0.1c-3.1,1.6-4.8,5.1-4.1,8.6
		l-0.3,0.1c-1.9,0.8-3.4,2.5-3.8,4.6c-0.6,2.9,0.7,5.4,2.6,7.3c-1,2.5-0.7,5.4,0.8,7.6c1,1.4,2.5,2.3,4.2,2.7
		c0.4,0.1,0.8,0.1,1.1,0.2c0,0.1,0,0.2,0,0.2c0.3,3.9,2.9,8.1,7,8.9c2.1,0.5,4.3-0.3,5.7-2c0.1,0.2,0.3,0.3,0.5,0.5
		c2.1,1.8,5.4,4.1,8.4,3.7c1.8-0.3,3.3-1.4,4.1-3c0.1-0.1,0.1-0.3,0.2-0.4c0.8,0.9,2,1.4,3.2,1.3c3-0.3,5.6-2.2,6.7-4.9
		c0.7,0,1.4-0.3,1.9-0.7C309.5,189,311.9,186.5,311.5,183.2z"></path><path class="st4" d="M311.5,183.2c-0.2-1.6-0.9-3-2.1-4.1c0.3-0.6,0.5-1.3,0.6-2c0.1-1.7-0.3-3.3-1.1-4.8c-0.7-1.5-1.9-2.7-3.3-3.4
		l-0.2-0.1c0.5-3.6-0.7-7.4-4.3-8.9c-0.8-0.3-1.6-0.5-2.5-0.4c-0.8-2.6-3.1-4.5-5.8-4.9c-1.6-0.2-3.2,0.1-4.5,0.9
		c-2.2-2.2-6.2-2.2-8.9-0.9c-0.9,0.4-1.6,1-2.3,1.8c-2.5-1.3-5.4-1.4-7.9-0.1c-3.1,1.6-4.8,5.1-4.1,8.6l-0.3,0.1
		c-1.9,0.8-3.4,2.5-3.8,4.6c-0.6,2.9,0.7,5.4,2.6,7.3c-1,2.5-0.7,5.4,0.8,7.6c1,1.4,2.5,2.3,4.2,2.7c0.4,0.1,0.8,0.1,1.1,0.2
		c0,0.1,0,0.2,0,0.2c0.3,3.9,2.9,8.1,7,8.9c2.1,0.5,4.3-0.3,5.7-2c0.1,0.2,0.3,0.3,0.5,0.5c2.1,1.8,5.4,4.1,8.4,3.7
		c1.8-0.3,3.3-1.4,4.1-3c0.1-0.1,0.1-0.3,0.2-0.4c0.8,0.9,2,1.4,3.2,1.3c3-0.3,5.6-2.2,6.7-4.9c0.7,0,1.4-0.3,1.9-0.7
		C309.5,189,311.9,186.5,311.5,183.2z"></path><path class="st11" d="M272.6,158.6c0,0,0-0.1,0-0.1l0,0C272.6,158.5,272.6,158.5,272.6,158.6z"></path><path class="st11" d="M272.4,158.5L272.4,158.5L272.4,158.5L272.4,158.5z"></path><path class="st11" d="M311.8,178.6c-0.2-1.6-0.9-3-2.1-4.1c0.3-0.6,0.5-1.3,0.6-2c0.1-1.7-0.3-3.3-1.1-4.8
		c-0.7-1.5-1.9-2.7-3.4-3.4l-0.2-0.1c0.4-3.6-0.7-7.4-4.3-8.9c-0.8-0.3-1.6-0.5-2.5-0.4c-0.8-2.6-3.1-4.5-5.8-4.9
		c-1.6-0.2-3.2,0.1-4.5,0.9c-2.2-2.2-6.2-2.2-8.9-0.9c-0.9,0.4-1.6,1-2.3,1.7c-2.5-1.3-5.4-1.4-7.9-0.1c-3.1,1.6-4.8,5.1-4.1,8.6
		l-0.3,0.1c-1.9,0.8-3.4,2.5-3.8,4.6c-0.6,2.9,0.7,5.4,2.6,7.4c-1,2.5-0.7,5.4,0.8,7.6c1,1.4,2.5,2.3,4.2,2.7
		c0.4,0.1,0.8,0.1,1.1,0.2c0,0.1,0,0.2,0,0.2c0.3,3.9,2.9,8.1,7,8.9c2.1,0.5,4.3-0.3,5.7-2c0.1,0.2,0.3,0.3,0.5,0.5
		c2.1,1.8,5.4,4.1,8.4,3.7c1.8-0.3,3.3-1.4,4.1-3c0.1-0.1,0.1-0.3,0.2-0.4c0.8,0.9,2,1.3,3.2,1.3c3-0.3,5.5-2.2,6.6-4.9
		c0.7,0,1.4-0.3,2-0.7C309.8,184.4,312.1,181.9,311.8,178.6z"></path><path class="st9" d="M299.5,170.3c-2.2-4.7-8.5-7.4-13.4-7.6c-4-0.2-8.6,2.1-8.9,6.5c-0.3,5.2,5.6,9.1,10.1,10.1
		c4.2,0.9,8.5-2,6.2-6.6c-1.7-3.4-8.8-6.1-9-0.4c0,0.5,0.4,0.8,0.8,0.8c0.1,0,0.2,0,0.4-0.1c0-0.2,0-0.4,0-0.5
		c0.9-2.5,3.5-2.1,5.2-0.8c0.3,0.1,0.6,0.4,0.7,0.7c0.1,0.2,0.2,0.3,0.3,0.5c0.7,1.2,0.7,3.2-0.5,4.1c-0.8,0.5-1.8,0.7-2.8,0.5
		l-0.2,0.3l-1-0.2c-2.4,0-6.2-2.7-7.5-4.7c-4.2-6.5,3.4-9.7,8.8-8.4c4.2,1,9.1,3.6,10,8.2c1,5-2.6,9.3-7.2,10.6
		c-8.3,2.5-19.3-5.1-19.3-13.9c0-4.7,4.7-8.2,8.9-9.7c4.6-1.5,9.6-0.9,13.7,1.7c0.8,0.5,1.4-0.9,0.6-1.4c-5.2-3.1-11.6-3.4-17-0.8
		c-4.2,2.1-8.7,6.4-7.9,11.5c1.7,10.7,16.4,18.9,25.6,11.9C299.8,180,301.5,174.7,299.5,170.3z"></path></g><g id="chopstick"><polyline class="st16" points="370,236 370,254 404.6,273.9 423.4,262.5 423.4,249.4 	"></polyline><path class="st16" d="M370,236c0,0,9.3,10.1,19.1,15.5s16.5,7,16.5,7l17.8-9c0,0-27.4-11.6-35.6-23L370,236z"></path><path class="st17" d="M370,236c0,0,9.3,10.1,19.1,15.5s16.5,7,16.5,7l17.8-9c0,0-27.4-11.6-35.6-23L370,236z"></path><polygon class="st4" points="404.6,273.9 404.6,258.4 423.4,249.4 423.4,262.5 	"></polygon><path class="st15" d="M404.6,238.8c0,0,5.7-2.9,3.4-5.3c-1.4-1.5-4.7,0-4.7,0S233,335,232.4,337.3s0.4,5.7,0.4,5.7l8.3,1.1
		L404.6,238.8z"></path><path class="st15" d="M412.9,244.5c0,0,5.4-3.4,2.9-5.6c-1.6-1.4-4.7,0.4-4.7,0.4S250.8,356,250.4,358.3s0.9,5.7,0.9,5.7l8.4,0.4
		L412.9,244.5z"></path></g></svg>