<svg transform="scale(1)" version="1.1" id="Layer_1" xmlns="http://www.w3.org/2000/svg" xmlns:xlink="http://www.w3.org/1999/xlink" x="0px" y="0px" viewBox="0 0 500 500" xml:space="preserve" class="show_show__wrapper__graphic__5Waiy "><title>React</title><style type="text/css">
	.st0{fill:#284362;}
	.st1{fill:#bf2e26;}
	.st2{opacity:0.14;fill:#3C537C;enable-background:new    ;}
	.st3{opacity:0.45;fill:#3C537C;enable-background:new    ;}
	.st4{fill:#A9CB1C;}
	.st5{fill:#e5c16e;}
	.st6{fill:#D87113;}
	.st7{opacity:0.5;fill:#FFFFFF;enable-background:new    ;}
	.st8{fill:#E85521;}
	.st9{fill:#FFFFFF;}
	.st10{fill:#ffc235;}
	.st11{opacity:0.1;fill:#3C537C;enable-background:new    ;}
	.st12{opacity:0.2;fill:#3C537C;enable-background:new    ;}
	.st13{fill:url(#SVGID_1_);}
	.st14{fill:#3C537C;}
	.st15{fill:#E5E5E5;}
	.st16{fill:url(#SVGID_00000008863700976502111030000010309957033693121705_);}
</style><path class="st0" id="background" d="M243,391.3L23.3,261.5c-7-3.9-13-10.4-6.2-14.6l220.4-127c3.3-2.1,8.3-3.4,11.7-1.4
	l230.6,133.8c7,4.1,8.2,15.4,1.2,19.5L271.9,391.1C263,396.3,252,396.4,243,391.3z"></path><g id="meal"><path class="st1" d="M394.5,277.8v-36l-62.8-14.3c-3.9-2.2-7.7-4.3-11.6-6.4c-15.1-8.1-29.2-18.3-44.8-25.5
		c-16.1-7.4-35.2-8.4-52.7-7.2c-8.3,0.6-19.2,3.2-29.6,7.5l-34.9-8V234h0.1c0.9,11,9.8,19.9,19.8,25.8
		c34.2,20.1,80.5,48.8,90.5,55.1c25.1,15.6,64.4,13.7,89.9,1.2l17.7-8.6c0.9-0.4,1.8-0.9,2.6-1.5
		C383.3,302.9,396.6,292.8,394.5,277.8z"></path><path class="st2" d="M394.5,277.8v-36l-62.8-14.3c-3.9-2.2-7.7-4.3-11.6-6.4c-15.1-8.1-29.2-18.3-44.8-25.5
		c-16.1-7.4-35.2-8.4-52.7-7.2c-8.3,0.6-19.2,3.2-29.6,7.5l-34.9-8V234h0.1c0.9,11,9.8,19.9,19.8,25.8
		c34.2,20.1,80.5,48.8,90.5,55.1c25.1,15.6,64.4,13.7,89.9,1.2l17.7-8.6c0.9-0.4,1.8-0.9,2.6-1.5
		C383.3,302.9,396.6,292.8,394.5,277.8z"></path><path class="st1" d="M379.8,213.5c-19.8-11.5-39.5-23.7-59.7-34.5c-15.1-8.1-29.2-18.3-44.8-25.5c-16.1-7.4-35.2-8.4-52.7-7.2
		c-20.1,1.4-55.4,14.6-63,35.5c-5.7,15.7,5.4,28.3,18.4,35.9c34.2,20.1,80.5,48.8,90.5,55.1c25.1,15.6,64.4,13.7,89.9,1.2l17.6-8.6
		c0.9-0.4,1.7-0.9,2.6-1.5c6.3-4.1,28.4-21.2,7.2-45.5C384,216.4,382,214.8,379.8,213.5z"></path><path class="st3" d="M370.4,213.6c-18-10.4-35.9-21.5-54.2-31.3c-13.8-7.4-26.5-16.6-40.8-23.2c-14.6-6.7-34.3-9.7-50.2-8.6
		c-18.3,1.3-52,13.9-58.9,32.9c-5.2,14.3,8.9,27.1,20.6,34c31,18.2,73.2,44.4,82.3,50.1c20.9,13,47,14.7,70.4,8.6
		c16.7-4.4,43.3-14,46.6-33.9c1.4-8.4-2.6-16.4-8-22.6C375.8,217.3,373.2,215.3,370.4,213.6z"></path><path class="st1" d="M191.2,220c0.4,0.3,99.3-54.9,99.3-54.9l8.9,5.1l-98.7,55.4L191.2,220z"></path><path class="st4" d="M325.3,176.7c0,6.7-2.9,12-8.6,14.4c2.3-2.3,4.5-5,5.2-8.1c0.9-4.1-1.3-7.7-2.5-11.4c-1.7-5.6-2-11.2,1.5-16.2
		c0.2-0.3,0.5-0.6,0.8-0.8c-0.3-0.4-0.6-0.7-0.9-1c-6.6-5.7-4.3,8.1-10.9,7c-0.7-0.1-1.4-0.4-2-0.8c0.6,1.2,1.2,2.4,1.8,3.6
		c0.6,4.2,1.9,8.3,2.5,12.7c1.1,7-1.4,14.1-6.7,18.9c4.7-6.3,5.8-14.5,3.2-22.2c-2.5-7.6-7.9-13.6-9.4-21.6c-0.1-0.3-0.1-0.6,0-0.9
		c-0.7,0-1.4,0.1-2.1,0.3c-8.5,2.1,1.5,13.4-3.3,14.3c-1.1,0.3-2.3-0.1-3-1.1c0.1,0.7,0.3,1.4,0.5,2.1c1.6,4.9,5.8,8,7.8,12.6
		c3,6.9-2.4,12.9-3.5,19.5c-0.6-3.8,0.9-7,0.9-11c0-5.2-2.7-9.9-5.6-14c-2.4-3.4-5.4-6.7-6-11c-0.2-1.6-0.1-3.1,0.3-4.7
		c-2.1,0.9-4.6,4.1-4.8,14.4c0,1.5-0.2,2.9-0.5,4.4c2.5,6.9,7.3,13.5,11.7,18.6c0.3,0.3,0.5,0.7,0.6,1.1c-3.6-2.9-7.5-5.5-10.6-9
		c-1.8-2.1-3.4-4.2-4.9-6.5c-2.6,1-5.3,0-2.9,9c4,15.1,20.4,18.3,20.4,18.3c25.7,0.6,44.6-31.7,38.1-37.2c-3.8-3.3-6.2-2-8.2-0.8
		c0.4,1.1,0.8,2.2,1.2,3.4C325.4,174.2,325.3,175.4,325.3,176.7z"></path><path class="st4" d="M291.1,173c2.9,4.1,5.6,8.8,5.6,14c0,3.9-1.5,7.2-0.9,11c1.1-6.6,6.5-12.6,3.5-19.5c-2-4.6-6.1-7.8-7.8-12.6
		c-0.2-0.7-0.4-1.4-0.5-2.1c-1.8-2.1-1.9-6.7-3.1-6.8c-0.9-0.1-1.8,0-2.6,0.3c-0.4,1.5-0.5,3.1-0.3,4.7
		C285.7,166.4,288.7,169.6,291.1,173z"></path><path class="st4" d="M308.8,172.8c2.5,7.8,1.5,15.9-3.2,22.2c5.3-4.8,7.8-11.9,6.7-18.9c-0.6-4.4-1.9-8.5-2.5-12.7
		c-0.6-1.2-1.2-2.4-1.8-3.6c-3.7-2.5-3.3-9.4-8.5-9.5c-0.1,0.3-0.1,0.6,0,0.9C300.9,159.1,306.4,165.2,308.8,172.8z"></path><path class="st4" d="M320.5,170.4c-3-1.9,5.9-10.2,1.3-15.9c-0.3,0.2-0.6,0.4-0.8,0.8c-3.5,4.9-3.3,10.6-1.5,16.2
		c1.1,3.7,3.4,7.4,2.5,11.4c-0.7,3.1-2.9,5.8-5.2,8.1c5.7-2.4,8.6-7.6,8.6-14.4c0-1.3,0-2.5,0.2-3.6c-0.4-1.1-0.8-2.2-1.2-3.4
		C323,170.5,321.8,171.3,320.5,170.4z"></path><path class="st4" d="M292.3,195.9c-0.1-0.4-0.3-0.8-0.6-1.1c-4.3-5.2-9.1-11.8-11.7-18.6c-0.7,2.8-1.9,3.7-3.2,4.2
		c1.4,2.3,3.1,4.5,4.9,6.5C284.8,190.4,288.6,193.1,292.3,195.9z"></path><path class="st3" d="M291.1,173c2.9,4.1,5.6,8.8,5.6,14c0,3.9-1.5,7.2-0.9,11c1.1-6.6,6.5-12.6,3.5-19.5c-2-4.6-6.1-7.8-7.8-12.6
		c-0.2-0.7-0.4-1.4-0.5-2.1c-1.8-2.1-1.9-6.7-3.1-6.8c-0.9-0.1-1.8,0-2.6,0.3c-0.4,1.5-0.5,3.1-0.3,4.7
		C285.7,166.4,288.7,169.6,291.1,173z"></path><path class="st3" d="M308.8,172.8c2.5,7.8,1.5,15.9-3.2,22.2c5.3-4.8,7.8-11.9,6.7-18.9c-0.6-4.4-1.9-8.5-2.5-12.7
		c-0.6-1.2-1.2-2.4-1.8-3.6c-3.7-2.5-3.3-9.4-8.5-9.5c-0.1,0.3-0.1,0.6,0,0.9C300.9,159.1,306.4,165.2,308.8,172.8z"></path><path class="st3" d="M320.5,170.4c-3-1.9,5.9-10.2,1.3-15.9c-0.3,0.2-0.6,0.4-0.8,0.8c-3.5,4.9-3.3,10.6-1.5,16.2
		c1.1,3.7,3.4,7.4,2.5,11.4c-0.7,3.1-2.9,5.8-5.2,8.1c5.7-2.4,8.6-7.6,8.6-14.4c0-1.3,0-2.5,0.2-3.6c-0.4-1.1-0.8-2.2-1.2-3.4
		C323,170.5,321.8,171.3,320.5,170.4z"></path><path class="st3" d="M292.3,195.9c-0.1-0.4-0.3-0.8-0.6-1.1c-4.3-5.2-9.1-11.8-11.7-18.6c-0.7,2.8-1.9,3.7-3.2,4.2
		c1.4,2.3,3.1,4.5,4.9,6.5C284.8,190.4,288.6,193.1,292.3,195.9z"></path><path class="st4" d="M360.8,193.6c0,6.7-2.9,12-8.6,14.4c2.3-2.3,4.5-5,5.2-8.1c0.9-4.1-1.3-7.7-2.5-11.5c-1.7-5.6-2-11.2,1.5-16.2
		c0.2-0.3,0.5-0.6,0.8-0.8c-0.3-0.4-0.6-0.7-0.9-1c-6.6-5.7-4.3,8.1-10.9,7c-0.7-0.1-1.4-0.4-2-0.8c0.6,1.2,1.2,2.4,1.9,3.6
		c0.6,4.2,1.9,8.3,2.5,12.7c1.1,7-1.4,14.2-6.7,19c4.7-6.3,5.8-14.5,3.2-22.2c-2.5-7.6-7.9-13.6-9.4-21.6c-0.1-0.3-0.1-0.6,0-0.9
		c-0.7,0-1.4,0.1-2.1,0.3c-8.5,2.1,1.5,13.4-3.3,14.3c-1.1,0.3-2.3-0.1-3-1.1c0.1,0.7,0.3,1.4,0.5,2.1c1.6,4.9,5.8,8,7.8,12.6
		c3,6.9-2.4,12.9-3.5,19.5c-0.6-3.8,0.9-7.1,0.9-11c0-5.2-2.7-9.9-5.6-14c-2.4-3.4-5.4-6.7-6-11c-0.2-1.6-0.1-3.1,0.3-4.7
		c-2.1,0.9-4.6,4.1-4.8,14.4c0,1.5-0.2,2.9-0.5,4.4c2.5,6.9,7.3,13.5,11.7,18.6c0.3,0.3,0.5,0.7,0.6,1.1c-3.6-2.9-7.5-5.5-10.6-9
		c-1.8-2-3.4-4.2-4.9-6.5c-2.6,1-5.3,0-2.9,9c4,15.1,20.4,18.2,20.4,18.2c25.7,0.6,44.6-31.7,38.1-37.2c-3.8-3.3-6.2-2-8.2-0.8
		c0.4,1.1,0.8,2.2,1.2,3.4C360.8,191.2,360.8,192.4,360.8,193.6z"></path><path class="st4" d="M326.6,190c2.9,4.1,5.6,8.8,5.6,14c0,3.9-1.5,7.2-0.9,11c1.1-6.6,6.5-12.6,3.5-19.5c-2-4.6-6.1-7.8-7.8-12.6
		c-0.2-0.7-0.4-1.4-0.5-2.1c-1.8-2.2-1.9-6.7-3.1-6.8c-0.9-0.1-1.8,0-2.6,0.3c-0.4,1.5-0.5,3.1-0.3,4.7
		C321.2,183.3,324.1,186.6,326.6,190z"></path><path class="st4" d="M344.3,189.8c2.5,7.8,1.5,15.9-3.2,22.2c5.3-4.8,7.8-11.9,6.7-18.9c-0.6-4.4-1.9-8.5-2.5-12.7
		c-0.6-1.2-1.2-2.4-1.9-3.6c-3.7-2.5-3.3-9.4-8.5-9.5c-0.1,0.3-0.1,0.6,0,0.9C336.4,176.1,341.8,182.2,344.3,189.8z"></path><path class="st4" d="M355.9,187.4c-3-1.9,5.9-10.2,1.3-15.9c-0.3,0.2-0.6,0.5-0.8,0.8c-3.5,4.9-3.3,10.6-1.5,16.2
		c1.1,3.7,3.4,7.4,2.5,11.5c-0.7,3.1-2.9,5.8-5.2,8.1c5.7-2.4,8.6-7.7,8.6-14.4c0-1.3,0-2.5,0.2-3.6c-0.4-1.1-0.8-2.2-1.2-3.4
		C358.4,187.5,357.2,188.2,355.9,187.4z"></path><path class="st4" d="M327.8,212.9c-0.1-0.4-0.3-0.8-0.6-1.1c-4.3-5.1-9.1-11.8-11.7-18.6c-0.7,2.8-1.9,3.7-3.2,4.2
		c1.4,2.3,3.1,4.5,4.9,6.5C320.2,207.4,324.1,210,327.8,212.9z"></path><path class="st3" d="M326.6,190c2.9,4.1,5.6,8.8,5.6,14c0,3.9-1.5,7.2-0.9,11c1.1-6.6,6.5-12.6,3.5-19.5c-2-4.6-6.1-7.8-7.8-12.6
		c-0.2-0.7-0.4-1.4-0.5-2.1c-1.8-2.2-1.9-6.7-3.1-6.8c-0.9-0.1-1.8,0-2.6,0.3c-0.4,1.5-0.5,3.1-0.3,4.7
		C321.2,183.3,324.1,186.6,326.6,190z"></path><path class="st3" d="M344.3,189.8c2.5,7.8,1.5,15.9-3.2,22.2c5.3-4.8,7.8-11.9,6.7-18.9c-0.6-4.4-1.9-8.5-2.5-12.7
		c-0.6-1.2-1.2-2.4-1.9-3.6c-3.7-2.5-3.3-9.4-8.5-9.5c-0.1,0.3-0.1,0.6,0,0.9C336.4,176.1,341.8,182.2,344.3,189.8z"></path><path class="st3" d="M355.9,187.4c-3-1.9,5.9-10.2,1.3-15.9c-0.3,0.2-0.6,0.5-0.8,0.8c-3.5,4.9-3.3,10.6-1.5,16.2
		c1.1,3.7,3.4,7.4,2.5,11.5c-0.7,3.1-2.9,5.8-5.2,8.1c5.7-2.4,8.6-7.7,8.6-14.4c0-1.3,0-2.5,0.2-3.6c-0.4-1.1-0.8-2.2-1.2-3.4
		C358.4,187.5,357.2,188.2,355.9,187.4z"></path><path class="st3" d="M327.8,212.9c-0.1-0.4-0.3-0.8-0.6-1.1c-4.3-5.1-9.1-11.8-11.7-18.6c-0.7,2.8-1.9,3.7-3.2,4.2
		c1.4,2.3,3.1,4.5,4.9,6.5C320.2,207.4,324.1,210,327.8,212.9z"></path><path class="st4" d="M391.1,219.7c0,6.7-2.9,12-8.6,14.4c2.3-2.3,4.5-5,5.2-8.1c0.9-4.1-1.3-7.7-2.5-11.4c-1.7-5.6-2-11.2,1.5-16.2
		c0.2-0.3,0.5-0.6,0.8-0.8c-0.3-0.4-0.6-0.7-0.9-1c-6.6-5.7-4.3,8.1-10.9,7c-0.7-0.1-1.4-0.4-2-0.8c0.6,1.2,1.2,2.4,1.8,3.6
		c0.6,4.2,1.9,8.3,2.5,12.7c1.1,7-1.4,14.1-6.7,18.9c4.7-6.4,5.8-14.5,3.2-22.2c-2.5-7.6-7.9-13.6-9.4-21.6c-0.1-0.3-0.1-0.6,0-0.9
		c-0.7,0-1.4,0.1-2.1,0.3c-8.5,2.1,1.5,13.4-3.3,14.3c-1.1,0.3-2.3-0.1-3-1c0.1,0.7,0.3,1.4,0.5,2.1c1.6,4.9,5.8,8,7.8,12.6
		c3,6.9-2.4,12.9-3.5,19.5c-0.6-3.7,0.9-7,0.9-11c0-5.2-2.7-9.9-5.6-14c-2.4-3.4-5.4-6.7-6-11c-0.2-1.6-0.1-3.1,0.3-4.7
		c-2.1,0.9-4.6,4.1-4.8,14.4c0,1.5-0.2,2.9-0.5,4.4c2.5,6.9,7.3,13.5,11.7,18.6c0.3,0.3,0.5,0.7,0.6,1.1c-3.6-2.9-7.5-5.5-10.6-9
		c-1.8-2.1-3.4-4.2-4.9-6.5c-2.6,1-5.3,0-2.9,9c4,15.1,20.4,18.3,20.4,18.3c25.7,0.6,44.6-31.7,38.1-37.2c-3.8-3.3-6.2-2-8.2-0.8
		c0.4,1.1,0.8,2.2,1.2,3.4C391.2,217.2,391.1,218.4,391.1,219.7z"></path><path class="st4" d="M357,216.1c2.9,4.1,5.6,8.8,5.6,14c0,3.9-1.5,7.2-0.9,11c1.1-6.6,6.5-12.6,3.5-19.5c-2-4.6-6.1-7.8-7.8-12.6
		c-0.2-0.7-0.4-1.4-0.5-2.1c-1.8-2.2-1.9-6.7-3.1-6.8c-0.9-0.1-1.8,0-2.6,0.3c-0.4,1.5-0.5,3.1-0.3,4.7
		C351.5,209.4,354.5,212.6,357,216.1z"></path><path class="st4" d="M374.7,215.8c2.5,7.8,1.5,15.9-3.2,22.2c5.3-4.8,7.8-11.9,6.7-18.9c-0.6-4.4-1.9-8.5-2.5-12.7
		c-0.6-1.2-1.2-2.4-1.8-3.6c-3.7-2.5-3.3-9.4-8.5-9.5c-0.1,0.3-0.1,0.6,0,0.9C366.8,202.2,372.2,208.2,374.7,215.8z"></path><path class="st4" d="M386.3,213.4c-3-1.9,5.9-10.2,1.3-15.9c-0.3,0.2-0.6,0.5-0.8,0.8c-3.5,4.9-3.3,10.6-1.5,16.2
		c1.1,3.7,3.4,7.4,2.5,11.4c-0.7,3.2-2.9,5.8-5.2,8.1c5.7-2.4,8.6-7.6,8.6-14.4c0-1.3,0-2.5,0.2-3.6c-0.4-1.1-0.8-2.2-1.2-3.4
		C388.8,213.5,387.6,214.3,386.3,213.4z"></path><path class="st4" d="M358.1,238.9c-0.1-0.4-0.3-0.8-0.6-1.1c-4.3-5.2-9.1-11.8-11.7-18.6c-0.7,2.8-1.9,3.7-3.2,4.2
		c1.4,2.3,3.1,4.5,4.9,6.5C350.6,233.4,354.5,236.1,358.1,238.9z"></path><path class="st3" d="M357,216.1c2.9,4.1,5.6,8.8,5.6,14c0,3.9-1.5,7.2-0.9,11c1.1-6.6,6.5-12.6,3.5-19.5c-2-4.6-6.1-7.8-7.8-12.6
		c-0.2-0.7-0.4-1.4-0.5-2.1c-1.8-2.2-1.9-6.7-3.1-6.8c-0.9-0.1-1.8,0-2.6,0.3c-0.4,1.5-0.5,3.1-0.3,4.7
		C351.5,209.4,354.5,212.6,357,216.1z"></path><path class="st3" d="M374.7,215.8c2.5,7.8,1.5,15.9-3.2,22.2c5.3-4.8,7.8-11.9,6.7-18.9c-0.6-4.4-1.9-8.5-2.5-12.7
		c-0.6-1.2-1.2-2.4-1.8-3.6c-3.7-2.5-3.3-9.4-8.5-9.5c-0.1,0.3-0.1,0.6,0,0.9C366.8,202.2,372.2,208.2,374.7,215.8z"></path><path class="st3" d="M386.3,213.4c-3-1.9,5.9-10.2,1.3-15.9c-0.3,0.2-0.6,0.5-0.8,0.8c-3.5,4.9-3.3,10.6-1.5,16.2
		c1.1,3.7,3.4,7.4,2.5,11.4c-0.7,3.2-2.9,5.8-5.2,8.1c5.7-2.4,8.6-7.6,8.6-14.4c0-1.3,0-2.5,0.2-3.6c-0.4-1.1-0.8-2.2-1.2-3.4
		C388.8,213.5,387.6,214.3,386.3,213.4z"></path><path class="st3" d="M358.1,238.9c-0.1-0.4-0.3-0.8-0.6-1.1c-4.3-5.2-9.1-11.8-11.7-18.6c-0.7,2.8-1.9,3.7-3.2,4.2
		c1.4,2.3,3.1,4.5,4.9,6.5C350.6,233.4,354.5,236.1,358.1,238.9z"></path><path class="st5" d="M399.5,254.9c-1.2-4.1-5.8-12.2-8.7-15.1c-1.8-1.8-5-2.6-7.4-3.3c-3-1-6.1-2-9.2-2.8s-6.4-1.1-9.3,0.5
		c-1.8,1-3.5,2-5.3,3c-4.9,2.8-9.8,5.7-14.6,8.5c-5.7,3.3-11.3,6.7-17,10c-5.2,3.1-10.4,6.2-15.6,9.3c-3.6,2.1-7.1,4.2-10.7,6.4
		l-2.5,1.6c0.3,3,0.8,5.9,1.6,8.8c1.1,3.4,21,12.8,23.4,13.9s9.5-1.4,11.8-3S400.8,259,399.5,254.9z"></path><path class="st6" d="M399.5,254.9c-1.4-4-3.3-7.8-5.7-11.2c-10.9,8.9-25.1,15.5-37.2,22.3c-9.8,5.4-24.4,12.7-34.1,18.3
		c2.7,1.3,3.8,4.5,5.4,6.9c1.2,1.8,0.7,3.1,0.4,4.6C336.2,294.7,400.8,258.9,399.5,254.9z"></path><path class="st7" d="M318.8,280.8c-2.7-1.2-5.5-2-8.2-3.2c-3.5-1.8-7.2-3.3-11-4.5h-0.1l-0.2,0.1c0.3,3,0.8,5.9,1.6,8.8
		c1.1,3.4,21,12.8,23.4,13.9c1.3,0.4,2.7,0.4,4,0C329.4,290,323.6,282.9,318.8,280.8z"></path><path class="st6" d="M317.5,279.6c-5.3-3.4-11.3-5.5-17.2-7.6c-0.7,0.6-1.1,1.4-1,2.3c4.4,1.5,8.6,3.2,12.8,5.2
		c1.4,0.7,2.8,1.5,4.1,2.3c1.2,0.7,5.6,3.1,5.9,4.6c1.1,6.3-11.1-0.7-13.1-2.1c-1-0.7-5.5-3.6-1.3-1.8c2.4,1,4.6,2.2,6.8,3.6
		c1.4,0.9,2.6-1.3,1.3-2.2c-2.6-1.8-9.9-6.8-13-4c-0.4,0.4-0.5,1-0.2,1.5c1.9,4.6,21.5,16.1,23.2,7.3
		C326.5,284.8,320.2,281.2,317.5,279.6z"></path><path class="st6" d="M363.8,245.1c-0.7,0-1.3,0.6-1.3,1.3c0,0.7,0.6,1.3,1.3,1.3c0.7,0,1.3-0.6,1.3-1.3
		C365,245.6,364.4,245.1,363.8,245.1z"></path><path class="st6" d="M336.5,261.2c-0.7,0.1-1.2,0.7-1.2,1.4c0.1,0.6,0.5,1.1,1.2,1.2c0.7-0.1,1.2-0.7,1.2-1.4
		C337.6,261.7,337.1,261.3,336.5,261.2z"></path><path class="st6" d="M320.3,269.2c-0.7,0-1.3,0.6-1.3,1.3c0,0.7,0.6,1.3,1.3,1.3s1.3-0.6,1.3-1.3
		C321.6,269.7,321,269.2,320.3,269.2z"></path><path class="st6" d="M344.7,249.8c-0.7,0.1-1.2,0.7-1.2,1.4c0.1,0.6,0.5,1.1,1.2,1.2c0.7-0.1,1.2-0.7,1.2-1.4
		C345.8,250.4,345.3,249.9,344.7,249.8z"></path><path class="st6" d="M346.7,264.2c-0.7,0-1.3,0.6-1.3,1.3c0,0.7,0.6,1.3,1.3,1.3l0,0c0.7,0,1.3-0.6,1.3-1.3
		C348,264.7,347.4,264.2,346.7,264.2z"></path><path class="st6" d="M331,270.3c-0.7,0.1-1.2,0.7-1.2,1.4c0.1,0.6,0.5,1.1,1.2,1.2c0.7-0.1,1.2-0.7,1.2-1.4
		C332.1,270.8,331.6,270.3,331,270.3z"></path><path class="st6" d="M328.5,258.5c-0.7,0-1.3,0.6-1.3,1.3c0,0.7,0.6,1.3,1.3,1.3s1.3-0.6,1.3-1.3
		C329.8,259,329.2,258.5,328.5,258.5z"></path><path class="st6" d="M356.2,254.2c-0.7,0-1.3,0.6-1.3,1.3s0.6,1.3,1.3,1.3s1.3-0.6,1.3-1.3S357,254.2,356.2,254.2z"></path><path class="st6" d="M362.8,238.5c-0.7,0-1.3,0.6-1.3,1.3c0,0.7,0.6,1.3,1.3,1.3c0.7,0,1.3-0.6,1.3-1.3
		C364.1,239,363.5,238.5,362.8,238.5z"></path><path class="st6" d="M381.2,240.3c-0.7,0-1.3,0.6-1.3,1.3c0,0.7,0.6,1.3,1.3,1.3c0.7,0,1.3-0.6,1.3-1.3
		C382.5,240.9,381.9,240.3,381.2,240.3z"></path><path class="st6" d="M370.1,252.1c-0.7,0.1-1.2,0.7-1.2,1.4c0.1,0.6,0.5,1.1,1.2,1.2c0.7-0.1,1.2-0.7,1.2-1.4
		C371.2,252.7,370.7,252.2,370.1,252.1z"></path><path class="st6" d="M356.5,258.9c-0.7,0.1-1.2,0.7-1.2,1.4c0.1,0.6,0.5,1.1,1.2,1.2c0.7-0.1,1.2-0.7,1.2-1.4
		C357.6,259.5,357.1,259,356.5,258.9z"></path><path class="st6" d="M375.1,240.8c-0.7,0.1-1.2,0.7-1.2,1.4c0.1,0.6,0.5,1.1,1.2,1.2c0.7-0.1,1.2-0.7,1.2-1.4
		C376.2,241.3,375.7,240.8,375.1,240.8z"></path><path class="st2" d="M317.5,279.6c-5.3-3.4-11.3-5.5-17.2-7.6c-0.7,0.6-1.1,1.4-1,2.3c4.4,1.5,8.6,3.2,12.8,5.2
		c1.4,0.7,2.8,1.5,4.1,2.3c1.2,0.7,5.6,3.1,5.9,4.6c1.1,6.3-11.1-0.7-13.1-2.1c-1-0.7-5.5-3.6-1.3-1.8c2.4,1,4.6,2.2,6.8,3.6
		c1.4,0.9,2.6-1.3,1.3-2.2c-2.6-1.8-9.9-6.8-13-4c-0.4,0.4-0.5,1-0.2,1.5c1.9,4.6,21.5,16.1,23.2,7.3
		C326.5,284.8,320.2,281.2,317.5,279.6z"></path><path class="st5" d="M310.7,205.2c-1.2-4.1-5.8-12.2-8.7-15.1c-1.8-1.8-5-2.5-7.4-3.3c-3-1-6.1-2-9.2-2.8s-6.4-1.1-9.3,0.5
		c-1.8,1-3.5,2-5.3,3c-4.9,2.8-9.8,5.7-14.6,8.5c-5.7,3.3-11.3,6.7-17,10c-5.2,3.1-10.5,6.2-15.7,9.3l-10.7,6.4l-2.5,1.5
		c0.3,3,0.8,5.9,1.6,8.8c1.1,3.4,21,12.8,23.4,13.9s9.6-1.3,11.8-3S311.9,209.3,310.7,205.2z"></path><path class="st6" d="M310.7,205.2c-1.4-4-3.3-7.8-5.7-11.2c-10.9,8.9-25.1,15.5-37.2,22.3c-9.8,5.4-24.4,12.7-34.1,18.3
		c2.7,1.3,3.8,4.5,5.4,6.9c1.2,1.8,0.7,3.1,0.4,4.6C247.3,244.9,311.9,209.2,310.7,205.2z"></path><path class="st7" d="M229.9,231c-2.7-1.2-5.5-2-8.2-3.2c-3.6-1.8-7.2-3.3-11-4.5h-0.1l-0.2,0.1c0.3,3,0.8,5.9,1.6,8.8
		c1.1,3.4,21,12.8,23.4,13.9c1.3,0.4,2.7,0.4,4,0C240.5,240.2,234.7,233.1,229.9,231z"></path><path class="st6" d="M228.6,229.8c-5.3-3.4-11.3-5.5-17.2-7.6c-0.7,0.6-1.1,1.4-1,2.3c4.4,1.5,8.6,3.2,12.8,5.2
		c1.4,0.7,2.8,1.5,4.1,2.3c1.1,0.7,5.6,3,5.9,4.6c1.1,6.3-11.1-0.7-13.1-2.1c-1-0.7-5.5-3.6-1.3-1.8c2.4,1,4.6,2.2,6.8,3.6
		c1.4,0.9,2.6-1.3,1.3-2.2c-2.6-1.8-9.9-6.8-13-4c-0.4,0.4-0.5,1-0.2,1.5c1.9,4.6,21.5,16.1,23.2,7.3
		C237.6,235,231.3,231.5,228.6,229.8z"></path><path class="st6" d="M274.9,195.3c-0.7,0.1-1.2,0.7-1.2,1.4c0.1,0.6,0.5,1.1,1.2,1.2c0.7-0.1,1.2-0.7,1.2-1.4
		C276,195.9,275.5,195.4,274.9,195.3z"></path><path class="st6" d="M247.6,211.5c-0.7,0-1.3,0.6-1.3,1.3c0,0.7,0.6,1.3,1.3,1.3c0.7,0,1.3-0.6,1.3-1.3
		C248.9,212,248.3,211.5,247.6,211.5z"></path><path class="st6" d="M231.5,219.4c-0.7,0.1-1.2,0.7-1.2,1.4c0.1,0.6,0.5,1.1,1.2,1.2c0.7-0.1,1.2-0.7,1.2-1.4
		C232.6,220,232.1,219.5,231.5,219.4z"></path><path class="st6" d="M255.8,200.1c-0.7,0.1-1.2,0.7-1.2,1.4c0.1,0.6,0.5,1.1,1.2,1.2c0.7-0.1,1.2-0.7,1.2-1.4
		C256.9,200.6,256.4,200.2,255.8,200.1z"></path><path class="st6" d="M257.8,214.4c-0.7,0.1-1.2,0.7-1.2,1.4c0.1,0.6,0.5,1.1,1.2,1.2c0.7-0.1,1.2-0.7,1.2-1.4
		C258.9,215,258.4,214.5,257.8,214.4z"></path><path class="st6" d="M242.1,220.6c-0.7,0-1.3,0.6-1.3,1.3c0,0.7,0.6,1.3,1.3,1.3c0.7,0,1.3-0.6,1.3-1.3
		C243.4,221.1,242.8,220.6,242.1,220.6z"></path><path class="st6" d="M239.6,208.7c-0.7,0.1-1.2,0.7-1.2,1.4c0.1,0.6,0.5,1.1,1.2,1.2c0.7-0.1,1.2-0.7,1.2-1.4
		C240.8,209.3,240.3,208.8,239.6,208.7z"></path><path class="st6" d="M267.4,204.4c-0.7,0.1-1.2,0.7-1.2,1.4c0.1,0.6,0.5,1.1,1.2,1.2c0.7-0.1,1.2-0.7,1.2-1.4
		C268.5,205,268,204.5,267.4,204.4z"></path><path class="st6" d="M274,188.7c-0.7,0.1-1.2,0.7-1.2,1.4c0.1,0.6,0.5,1.1,1.2,1.2c0.7-0.1,1.2-0.7,1.2-1.4
		C275.1,189.3,274.6,188.8,274,188.7z"></path><path class="st6" d="M292.4,190.6c-0.7,0-1.3,0.6-1.3,1.3c0,0.7,0.6,1.3,1.3,1.3c0.7,0,1.3-0.6,1.3-1.3
		C293.6,191.1,293.1,190.6,292.4,190.6z"></path><path class="st6" d="M281.2,202.4c-0.7,0-1.3,0.6-1.3,1.3c0,0.7,0.6,1.3,1.3,1.3c0.7,0,1.3-0.6,1.3-1.3
		C282.5,202.9,281.9,202.4,281.2,202.4z"></path><path class="st6" d="M267.6,209.2c-0.7,0.1-1.2,0.7-1.2,1.4c0.1,0.6,0.5,1.1,1.2,1.2c0.7-0.1,1.2-0.7,1.2-1.4
		C268.7,209.7,268.2,209.2,267.6,209.2z"></path><path class="st6" d="M286.2,191c-0.7,0.1-1.2,0.7-1.2,1.4c0.1,0.6,0.5,1.1,1.2,1.2c0.7-0.1,1.2-0.7,1.2-1.4
		C287.3,191.5,286.9,191.1,286.2,191z"></path><path class="st5" d="M340.5,223.4c-1.2-4.1-5.8-12.2-8.7-15.1c-1.8-1.8-5-2.6-7.4-3.3c-3-1-6.1-2-9.2-2.8s-6.4-1.1-9.3,0.5
		c-1.8,1-3.5,2-5.3,3c-4.9,2.8-9.8,5.7-14.6,8.5c-5.7,3.3-11.3,6.7-17,10c-5.2,3.1-10.4,6.2-15.6,9.3c-3.6,2.1-7.1,4.2-10.7,6.4
		l-2.5,1.5c0.3,3,0.8,5.9,1.6,8.8c1.1,3.4,21,12.8,23.4,13.9s9.5-1.4,11.8-3S341.7,227.5,340.5,223.4z"></path><path class="st6" d="M340.5,223.4c-1.4-4-3.3-7.8-5.7-11.2c-10.9,8.9-25.1,15.5-37.2,22.3c-9.8,5.4-24.4,12.7-34.1,18.3
		c2.7,1.3,3.8,4.5,5.4,6.9c1.2,1.8,0.7,3.1,0.4,4.6C277.1,263.2,341.6,227.4,340.5,223.4z"></path><path class="st7" d="M259.7,249.3c-2.7-1.2-5.5-2-8.2-3.2c-3.5-1.8-7.2-3.3-11-4.5h-0.1l-0.2,0.1c0.3,3,0.8,5.9,1.6,8.8
		c1.1,3.4,21,12.8,23.4,13.9c1.3,0.4,2.7,0.4,4,0C270.2,258.4,264.5,251.4,259.7,249.3z"></path><path class="st6" d="M258.4,248c-5.3-3.4-11.3-5.5-17.2-7.6c-0.7,0.6-1.1,1.4-1,2.3c4.4,1.5,8.6,3.2,12.8,5.2
		c1.4,0.7,2.8,1.5,4.1,2.3c1.1,0.7,5.6,3.1,5.9,4.6c1.1,6.3-11.1-0.7-13.1-2.1c-1-0.7-5.5-3.6-1.3-1.8c2.4,1,4.6,2.2,6.8,3.6
		c1.4,0.9,2.6-1.3,1.3-2.2c-2.6-1.8-9.9-6.8-13-4c-0.4,0.4-0.5,1-0.2,1.5c1.9,4.6,21.5,16.2,23.2,7.3
		C267.4,253.2,261.1,249.7,258.4,248z"></path><path class="st6" d="M304.6,213.6c-0.7,0-1.3,0.6-1.3,1.3c0,0.7,0.6,1.3,1.3,1.3c0.7,0,1.3-0.6,1.3-1.3
		C305.9,214.1,305.3,213.6,304.6,213.6z"></path><path class="st6" d="M277.4,229.7c-0.7,0.1-1.2,0.7-1.2,1.4c0.1,0.6,0.5,1.1,1.2,1.2c0.7-0.1,1.2-0.7,1.2-1.4
		C278.5,230.2,278,229.7,277.4,229.7z"></path><path class="st6" d="M261.2,237.6c-0.7,0-1.3,0.6-1.3,1.3c0,0.7,0.6,1.3,1.3,1.3c0.7,0,1.3-0.6,1.3-1.3
		C262.5,238.2,261.9,237.6,261.2,237.6z"></path><path class="st6" d="M285.6,218.3c-0.7,0.1-1.2,0.7-1.2,1.4c0.1,0.6,0.5,1.1,1.2,1.2c0.7-0.1,1.2-0.7,1.2-1.4
		C286.7,218.9,286.2,218.4,285.6,218.3z"></path><path class="st6" d="M287.6,232.6c-0.7,0-1.3,0.6-1.3,1.3c0,0.7,0.6,1.3,1.3,1.3c0.7,0,1.3-0.6,1.3-1.3
		C288.9,233.2,288.3,232.6,287.6,232.6z"></path><path class="st6" d="M271.9,238.8c-0.7,0.1-1.2,0.7-1.2,1.4c0.1,0.6,0.5,1.1,1.2,1.2c0.7-0.1,1.2-0.7,1.2-1.4
		C273,239.3,272.5,238.8,271.9,238.8z"></path><path class="st6" d="M269.4,227c-0.7,0-1.3,0.6-1.3,1.3c0,0.7,0.6,1.3,1.3,1.3c0.7,0,1.3-0.6,1.3-1.3
		C270.7,227.6,270.1,227,269.4,227z"></path><path class="st6" d="M297.1,222.6c-0.7,0-1.3,0.6-1.3,1.3c0,0.7,0.6,1.3,1.3,1.3c0.7,0,1.3-0.6,1.3-1.3
		C298.4,223.2,297.8,222.6,297.1,222.6z"></path><path class="st6" d="M303.7,207c-0.7,0-1.3,0.6-1.3,1.3c0,0.7,0.6,1.3,1.3,1.3c0.7,0,1.3-0.6,1.3-1.3
		C305,207.6,304.4,207,303.7,207z"></path><path class="st6" d="M322.1,208.8c-0.7,0.1-1.2,0.7-1.2,1.4c0.1,0.6,0.5,1.1,1.2,1.2c0.7-0.1,1.2-0.7,1.2-1.4
		C323.3,209.3,322.8,208.8,322.1,208.8z"></path><path class="st6" d="M311,220.6c-0.7,0.1-1.2,0.7-1.2,1.4c0.1,0.6,0.5,1.1,1.2,1.2c0.7-0.1,1.2-0.7,1.2-1.4
		C312.1,221.1,311.6,220.6,311,220.6z"></path><path class="st6" d="M297.4,227.4c-0.7,0.1-1.2,0.7-1.2,1.4c0.1,0.6,0.5,1.1,1.2,1.2c0.7-0.1,1.2-0.7,1.2-1.4
		C298.5,228,298,227.5,297.4,227.4z"></path><path class="st6" d="M316,209.2c-0.7,0.1-1.2,0.7-1.2,1.4c0.1,0.6,0.5,1.1,1.2,1.2c0.7-0.1,1.2-0.7,1.2-1.4
		C317.1,209.8,316.6,209.3,316,209.2z"></path><path class="st5" d="M374.3,241.5c-1.2-4.1-5.8-12.2-8.7-15.1c-1.8-1.8-5-2.6-7.4-3.3c-3-1-6.1-2-9.2-2.8s-6.4-1.1-9.3,0.5
		c-1.8,1-3.5,2-5.3,3c-4.9,2.8-9.8,5.7-14.6,8.5c-5.7,3.3-11.3,6.7-17,10l-15.7,9.3l-10.6,6.4l-2.5,1.5c0.3,3,0.8,5.9,1.6,8.8
		c1.1,3.4,21,12.8,23.4,13.9s9.5-1.3,11.8-3S375.5,245.6,374.3,241.5z"></path><path class="st6" d="M374.3,241.5c-1.4-4-3.3-7.8-5.7-11.2c-10.9,8.9-25.1,15.5-37.2,22.3c-9.8,5.4-24.4,12.7-34.1,18.3
		c2.7,1.3,3.8,4.5,5.4,6.9c1.2,1.8,0.7,3.1,0.5,4.6C310.9,281.2,375.5,245.5,374.3,241.5z"></path><path class="st7" d="M293.5,267.3c-2.7-1.2-5.5-2-8.2-3.2c-3.6-1.6-7.1-3.4-11-4.5h-0.1l-0.2,0.1c0.3,3,0.8,5.9,1.6,8.8
		c1.1,3.4,21,12.8,23.4,13.9c1.3,0.4,2.7,0.4,4,0C304.1,276.5,298.3,269.5,293.5,267.3z"></path><path class="st6" d="M292.2,266.1c-5.3-3.4-11.3-5.5-17.2-7.6c-0.7,0.6-1.1,1.4-1,2.3c4.4,1.5,8.6,3.2,12.8,5.2
		c1.4,0.7,2.8,1.5,4.1,2.3c1.2,0.7,5.6,3,5.9,4.6c1.1,6.3-11.1-0.7-13.1-2.1c-1-0.7-5.5-3.6-1.3-1.8c2.4,1,4.6,2.2,6.7,3.6
		c1.4,0.9,2.6-1.3,1.3-2.2c-2.6-1.8-9.9-6.8-13-4c-0.4,0.4-0.5,1-0.2,1.5c2,4.6,21.5,16.1,23.2,7.3
		C301.2,271.3,294.9,267.8,292.2,266.1z"></path><path class="st2" d="M228.6,229.8c-5.3-3.4-11.3-5.5-17.2-7.6c-0.7,0.6-1.1,1.4-1,2.3c4.4,1.5,8.6,3.2,12.8,5.2
		c1.4,0.7,2.8,1.5,4.1,2.3c1.1,0.7,5.6,3,5.9,4.6c1.1,6.3-11.1-0.7-13.1-2.1c-1-0.7-5.5-3.6-1.3-1.8c2.4,1,4.6,2.2,6.8,3.6
		c1.4,0.9,2.6-1.3,1.3-2.2c-2.6-1.8-9.9-6.8-13-4c-0.4,0.4-0.5,1-0.2,1.5c1.9,4.6,21.5,16.1,23.2,7.3
		C237.6,235,231.3,231.5,228.6,229.8z"></path><path class="st2" d="M258.4,248c-5.3-3.4-11.3-5.5-17.2-7.6c-0.7,0.6-1.1,1.4-1,2.3c4.4,1.5,8.6,3.2,12.8,5.2
		c1.4,0.7,2.8,1.5,4.1,2.3c1.1,0.7,5.6,3.1,5.9,4.6c1.1,6.3-11.1-0.7-13.1-2.1c-1-0.7-5.5-3.6-1.3-1.8c2.4,1,4.6,2.2,6.8,3.6
		c1.4,0.9,2.6-1.3,1.3-2.2c-2.6-1.8-9.9-6.8-13-4c-0.4,0.4-0.5,1-0.2,1.5c1.9,4.6,21.5,16.2,23.2,7.3
		C267.4,253.2,261.1,249.7,258.4,248z"></path><path class="st2" d="M292.2,266.1c-5.3-3.4-11.3-5.5-17.2-7.6c-0.7,0.6-1.1,1.4-1,2.3c4.4,1.5,8.6,3.2,12.8,5.2
		c1.4,0.7,2.8,1.5,4.1,2.3c1.2,0.7,5.6,3,5.9,4.6c1.1,6.3-11.1-0.7-13.1-2.1c-1-0.7-5.5-3.6-1.3-1.8c2.4,1,4.6,2.2,6.7,3.6
		c1.4,0.9,2.6-1.3,1.3-2.2c-2.6-1.8-9.9-6.8-13-4c-0.4,0.4-0.5,1-0.2,1.5c2,4.6,21.5,16.1,23.2,7.3
		C301.2,271.3,294.9,267.8,292.2,266.1z"></path><path class="st6" d="M338.5,231.6c-0.7,0.1-1.2,0.7-1.2,1.4c0.1,0.6,0.5,1.1,1.2,1.2c0.7-0.1,1.2-0.7,1.2-1.4
		C339.6,232.2,339.1,231.7,338.5,231.6z"></path><path class="st6" d="M311.2,247.8c-0.7,0-1.3,0.6-1.3,1.3c0,0.7,0.6,1.3,1.3,1.3c0.7,0,1.3-0.6,1.3-1.3
		C312.5,248.3,311.9,247.8,311.2,247.8z"></path><path class="st6" d="M295,255.7c-0.7,0.1-1.2,0.7-1.2,1.4c0.1,0.6,0.5,1.1,1.2,1.2c0.7-0.1,1.2-0.7,1.2-1.4
		C296.2,256.3,295.7,255.8,295,255.7z"></path><path class="st6" d="M319.4,236.4c-0.7,0.1-1.2,0.7-1.2,1.4c0.1,0.6,0.5,1.1,1.2,1.2c0.7-0.1,1.2-0.7,1.2-1.4
		C320.5,236.9,320,236.5,319.4,236.4z"></path><path class="st6" d="M321.4,250.7c-0.7,0.1-1.2,0.7-1.2,1.4c0.1,0.6,0.5,1.1,1.2,1.2c0.7-0.1,1.2-0.7,1.2-1.4
		C322.5,251.3,322,250.8,321.4,250.7z"></path><path class="st6" d="M305.7,256.9c-0.7,0-1.3,0.6-1.3,1.3c0,0.7,0.6,1.3,1.3,1.3s1.3-0.6,1.3-1.3
		C307,257.4,306.4,256.9,305.7,256.9L305.7,256.9z"></path><path class="st6" d="M303.2,245c-0.7,0.1-1.2,0.7-1.2,1.4c0.1,0.6,0.5,1.1,1.2,1.2c0.7-0.1,1.2-0.7,1.2-1.4
		C304.3,245.5,303.8,245.1,303.2,245z"></path><path class="st6" d="M331,240.7c-0.7,0.1-1.2,0.7-1.2,1.4c0.1,0.6,0.5,1.1,1.2,1.2c0.7-0.1,1.2-0.7,1.2-1.4
		C332.1,241.3,331.6,240.8,331,240.7z"></path><path class="st6" d="M337.5,225c-0.7,0.1-1.2,0.7-1.2,1.4c0.1,0.6,0.5,1.1,1.2,1.2c0.7-0.1,1.2-0.7,1.2-1.4
		C338.7,225.5,338.2,225.1,337.5,225z"></path><path class="st6" d="M356,226.9c-0.7,0.1-1.2,0.7-1.2,1.4c0.1,0.6,0.5,1.1,1.2,1.2c0.7-0.1,1.2-0.7,1.2-1.4
		C357.1,227.4,356.6,226.9,356,226.9z"></path><path class="st6" d="M344.8,238.7c-0.7,0-1.3,0.6-1.3,1.3c0,0.7,0.6,1.3,1.3,1.3c0.7,0,1.3-0.6,1.3-1.3
		C346.1,239.2,345.5,238.7,344.8,238.7z"></path><path class="st6" d="M331.2,245.5c-0.7,0-1.3,0.6-1.3,1.3c0,0.7,0.6,1.3,1.3,1.3c0.7,0,1.3-0.6,1.3-1.3
		C332.5,246.1,331.9,245.5,331.2,245.5z"></path><path class="st6" d="M349.8,227.3c-0.7,0.1-1.2,0.7-1.2,1.4c0.1,0.6,0.5,1.1,1.2,1.2c0.7-0.1,1.2-0.7,1.2-1.4
		C350.9,227.9,350.4,227.4,349.8,227.3z"></path><ellipse class="st8" transform="matrix(0.8414 -0.5404 0.5404 0.8414 -54.5031 197.9169)" cx="310" cy="191.8" rx="8.2" ry="10.5"></ellipse><path class="st9" d="M312.2,186.6c-0.9-1-2.1-1.7-3.3-2c-0.7-0.1-1.3,0.4-1.4,1.1c-0.1,0.6,0.3,1.2,0.9,1.4
		c0.8,0.3,1.6,0.7,2.2,1.4c0.5,0.5,1.3,0.4,1.8-0.1C312.7,187.9,312.7,187.1,312.2,186.6z"></path><path class="st9" d="M313,189.1c-0.6,0.4-0.8,1.2-0.4,1.8c0.4,0.6,1.2,0.8,1.8,0.4s0.8-1.2,0.4-1.8
		C314.4,188.9,313.6,188.7,313,189.1L313,189.1z"></path><ellipse class="st8" transform="matrix(0.8414 -0.5404 0.5404 0.8414 -61.7724 217.5)" cx="339.7" cy="214" rx="8.2" ry="10.5"></ellipse><path class="st9" d="M341.9,208.8c-0.9-1-2.1-1.7-3.3-2c-0.7-0.2-1.4,0.2-1.5,0.9c-0.2,0.7,0.2,1.4,0.9,1.5c0,0,0.1,0,0.1,0
		c0.8,0.3,1.6,0.8,2.2,1.4c0.5,0.5,1.3,0.4,1.8-0.1C342.4,210,342.4,209.2,341.9,208.8z"></path><path class="st9" d="M342.8,211.3c-0.6,0.4-0.8,1.2-0.4,1.8c0.4,0.6,1.2,0.8,1.8,0.4s0.8-1.2,0.4-1.8
		C344.1,211.1,343.4,210.9,342.8,211.3z"></path><ellipse class="st8" transform="matrix(0.8414 -0.5404 0.5404 0.8414 -63.788 235.2226)" cx="368.9" cy="226.3" rx="8.2" ry="10.5"></ellipse><path class="st9" d="M371.1,221.1c-0.9-1-2.1-1.7-3.3-2c-0.7-0.1-1.4,0.3-1.5,1c-0.1,0.7,0.3,1.4,1,1.5c0.8,0.3,1.6,0.7,2.2,1.4
		c0.5,0.5,1.3,0.4,1.8-0.1C371.7,222.4,371.6,221.5,371.1,221.1z"></path><path class="st9" d="M372,223.6c-0.6,0.4-0.8,1.2-0.4,1.8c0.4,0.6,1.2,0.8,1.8,0.4s0.8-1.2,0.4-1.8
		C373.4,223.4,372.6,223.2,372,223.6L372,223.6z"></path><polygon class="st10" points="180.6,192.1 205.2,180 220.9,190 196,202.6 	"></polygon><polygon class="st10" points="220.9,190 218.4,203.6 195.1,216 196,202.6 	"></polygon><polygon class="st10" points="180.6,192.1 179.1,204.8 195.1,216 196,202.6 	"></polygon><polygon class="st11" points="180.6,192.1 179.1,204.8 195.1,216 196,202.6 	"></polygon><polygon class="st12" points="220.9,190 218.4,203.6 195.1,216 196,202.6 	"></polygon><polygon class="st10" points="247.3,147.1 272.6,157.5 275.6,175.8 249.7,165.6 	"></polygon><polygon class="st10" points="275.6,175.8 263.8,183 239,173.8 249.7,165.6 	"></polygon><polygon class="st10" points="247.3,147.1 236.8,154.4 239,173.8 249.7,165.6 	"></polygon><polygon class="st11" points="247.3,147.1 236.8,154.4 239,173.8 249.7,165.6 	"></polygon><polygon class="st12" points="275.6,175.8 263.8,183 239,173.8 249.7,165.6 	"></polygon><polygon class="st10" points="216.7,178.9 235.9,159.4 254,163.5 234.7,183.7 	"></polygon><polygon class="st10" points="254,163.5 256.2,177.2 238.3,196.6 234.7,183.7 	"></polygon><polygon class="st10" points="216.7,178.9 219.5,191.4 238.3,196.6 234.7,183.7 	"></polygon><polygon class="st11" points="216.7,178.9 219.5,191.4 238.3,196.6 234.7,183.7 	"></polygon><polygon class="st12" points="254,163.5 256.2,177.2 238.3,196.6 234.7,183.7 	"></polygon><polygon class="st10" points="206.3,150.2 231.6,160.7 234.6,179 208.6,168.7 	"></polygon><polygon class="st10" points="234.6,179 222.8,186.2 198,177 208.6,168.7 	"></polygon><polygon class="st10" points="206.3,150.2 195.8,157.6 198,177 208.6,168.7 	"></polygon><polygon class="st11" points="206.3,150.2 195.8,157.6 198,177 208.6,168.7 	"></polygon><polygon class="st12" points="234.6,179 222.8,186.2 198,177 208.6,168.7 	"></polygon><polygon class="st10" points="183.5,219.3 165.1,199 170.4,181.2 189.4,201.6 	"></polygon><polygon class="st10" points="170.4,181.2 184.2,179.8 202.5,198.8 189.4,201.6 	"></polygon><polygon class="st10" points="183.5,219.3 196.1,217.3 202.5,198.8 189.4,201.6 	"></polygon><polygon class="st11" points="183.5,219.3 196.1,217.3 202.5,198.8 189.4,201.6 	"></polygon><polygon class="st12" points="170.4,181.2 184.2,179.8 202.5,198.8 189.4,201.6 	"></polygon><polygon class="st10" points="195.6,170.1 217.2,186.9 215.2,205.3 192.9,188.5 	"></polygon><polygon class="st10" points="215.2,205.3 201.9,209.1 180.5,193.6 192.9,188.5 	"></polygon><polygon class="st12" points="215.2,205.3 201.9,209.1 180.5,193.6 192.9,188.5 	"></polygon><polygon class="st10" points="195.6,170.1 183.5,174.3 180.5,193.6 192.9,188.5 	"></polygon><polygon class="st11" points="195.6,170.1 183.5,174.3 180.5,193.6 192.9,188.5 	"></polygon></g><g id="spoon_and_fork"><linearGradient id="SVGID_1_" gradientUnits="userSpaceOnUse" x1="-4395.0107" y1="163.0329" x2="-4426.5708" y2="145.5329" gradientTransform="matrix(-1 0 0 -1 -4118.6001 502)"><stop offset="0" style="stop-color: rgb(216, 113, 19);"></stop><stop offset="1" style="stop-color: rgb(255, 255, 255);"></stop></linearGradient><path class="st13" d="M237.7,328.9l26.8-5.5l71.3,36l-21.6,13.1C292.6,359.7,259.9,340.4,237.7,328.9z"></path><path class="st14" d="M164.9,277.2c38.8,19.5,117.8,58.3,128.2,63.5c1.7,0.8,2.3,2.8,1.5,4.5c-0.1,0.2-0.2,0.3-0.3,0.5
		c-2.3,3.1-6.9,7-15.3,5.6c-12.3-2-107.7-63.4-117.7-68.6C163.4,280.6,163,279.6,164.9,277.2z"></path><path class="st14" d="M164.9,277.2c0-1.8-0.7-3.5-2-4.7c-2.2-2.1-17.1-12.1-20.5-15.4s-15.7-14.7-16.7-14.7s-1.7,0.4-1.1,1.3
		s27.4,24.4,27,25.4s-0.2,1.5-1.4,1.1s-27.6-24.6-27.6-24.6s-1.8-0.6-1.7,1.2l26.5,25.3c0,0,0.6,1.8-1,1.2S120,249.5,120,249.5
		s-1.4-0.9-2-0.3s0,1.9,0,1.9l25.4,23.4c0,0,1,1.3,0.1,1.7s-2.2-0.5-2.2-0.5L116.2,253c0,0-1.2-1.7-1.8-1c-0.5,0.6-0.5,1.6,0,2.2
		c0.6,0.7,25,23.5,25,23.5s7,6.1,10.6,7.3s9.3-1,11.2-2.2"></path><path class="st15" d="M167.8,275.4c38.8,19.5,117.8,58.3,128.2,63.6c1.7,0.8,2.3,2.8,1.5,4.5c-0.1,0.2-0.2,0.3-0.3,0.5
		c-2.3,3.1-6.9,7-15.3,5.6c-12.3-2-107.7-63.4-117.7-68.6C166.3,278.8,166,277.9,167.8,275.4z"></path><path class="st15" d="M167.8,275.4c0-1.8-0.7-3.5-2-4.7c-2.2-2.1-17.1-12.1-20.5-15.4s-15.7-14.7-16.7-14.7s-1.7,0.4-1.1,1.3
		s27.4,24.4,27.1,25.4s-0.2,1.5-1.4,1.1s-27.6-24.6-27.6-24.6s-1.8-0.6-1.7,1.2l26.5,25.3c0,0,0.6,1.8-1,1.2s-26.5-23.9-26.5-23.9
		s-1.4-0.9-2-0.3s0,1.9,0,1.9l25.4,23.4c0,0,1,1.3,0.1,1.7s-2.2-0.5-2.2-0.5l-25.1-22.6c0,0-1.2-1.7-1.8-1c-0.6,0.6-0.6,1.6,0,2.2
		c0.6,0.7,25,23.5,25,23.5s7,6.1,10.6,7.3s9.3-1,11.2-2.2"></path><polygon class="st9" points="221.6,302.2 203.4,304.9 213.7,311.3 232.8,307.7 	"></polygon><polygon class="st9" points="215.4,299.1 198.4,301.8 196.5,300.7 213.2,298 	"></polygon><polygon class="st9" points="251.7,316.9 230,321.2 234.2,323.8 256.4,319.4 	"></polygon><polygon class="st9" points="268.2,325.2 245.7,330.5 247.3,331.5 269.9,326 	"></polygon><linearGradient id="SVGID_00000019660245291186292850000006737436437307384972_" gradientUnits="userSpaceOnUse" x1="-4368.0957" y1="143.6223" x2="-4399.6558" y2="126.1223" gradientTransform="matrix(-1 0 0 -1 -4118.6001 502)"><stop offset="0" style="stop-color: rgb(216, 113, 19);"></stop><stop offset="1" style="stop-color: rgb(255, 255, 255);"></stop></linearGradient><path style="fill: url(&quot;#SVGID_00000019660245291186292850000006737436437307384972_&quot;);" d="M210.8,348.3l26.8-5.5l71.3,36l-21.6,13.1
		C265.7,379.1,233,359.8,210.8,348.3z"></path><path class="st14" d="M138,296.6c38.8,19.5,117.8,58.3,128.2,63.5c1.7,0.8,2.3,2.9,1.5,4.5c-0.1,0.2-0.2,0.3-0.3,0.5
		c-2.3,3.1-6.9,7-15.3,5.6c-12.3-2-107.7-63.4-117.7-68.6C136.5,300,136.1,299,138,296.6z"></path><path class="st14" d="M139.9,297.5c0.2-1.7,0.1-3.4-0.4-5c-2.4-7.6-8.1-13.4-14.6-17.6c-5-3.3-10.4-6.5-16.2-8.1
		c-9.7-2.7-21.5,1.6-15.7,13.6c4.9,10.1,14.4,18.8,24.3,23.9c6,3.1,13.8,4.8,19.3-0.2C138.4,302.3,139.6,300,139.9,297.5z"></path><path class="st15" d="M140.9,294.8c38.8,19.5,117.8,58.3,128.2,63.5c1.7,0.8,2.3,2.9,1.5,4.5c-0.1,0.2-0.2,0.3-0.3,0.5
		c-2.3,3.1-7,7-15.3,5.6c-12.3-2-107.7-63.4-117.7-68.6C139.4,298.2,139,297.3,140.9,294.8z"></path><path class="st15" d="M140.7,294.8c0.2-1.7,0-3.4-0.5-5c-2.4-7.6-8.1-13.4-14.6-17.6c-5-3.3-10.4-6.5-16.2-8.1
		c-9.7-2.7-21.6,1.6-15.7,13.6c4.9,10.1,14.4,18.8,24.3,23.9c6,3.1,13.8,4.8,19.3-0.2C139.2,299.7,140.4,297.3,140.7,294.8z"></path><polygon class="st9" points="194.7,321.6 176.4,324.3 186.8,330.7 205.9,327.1 	"></polygon><polygon class="st9" points="188.4,318.5 171.4,321.2 169.6,320.1 186.2,317.4 	"></polygon><polygon class="st9" points="224.8,336.4 203,340.7 207.3,343.2 229.5,338.8 	"></polygon><polygon class="st9" points="241.2,344.6 218.7,350 220.4,351 243,345.4 	"></polygon><path class="st12" d="M129.8,280.1c-5.1-4.6-10.8-9.6-17.5-12c3.6,2.3,6.8,5.5,9.9,8.1c5.2,4.4,11.7,10.3,10.3,17.9
		c-1,5.7-5.2,7-9.8,6.3c1.8,0.7,3.8,1.1,5.7,1.3c4.9,0.3,8.9-4.5,8.8-9.2C137.1,287.5,133.4,283.3,129.8,280.1z"></path><path class="st9" d="M102.4,270.3c-0.5,0.2-4,1.9-2.1,7.3s8.9,12.4,8.9,12.4s-12.1-8.6-13.3-14.6S102.4,270.3,102.4,270.3z"></path></g></svg>